<svg xmlns="http://www.w3.org/2000/svg" width="178.294" height="68.747" viewBox="0 0 178.294 68.747"><defs><style>.a{fill:#f59a08;}.a,.b{fill-rule:evenodd;}.b{fill:#fff;}</style></defs><g transform="translate(-0.498 -0.37)"><g transform="translate(0.498 0.37)"><path class="a" d="M28.821,86.78,18.34,83.019V67.657l10.481,3.571V86.78" transform="translate(-5.861 -20.597)"/><path class="a" d="M36.075,86.78l10.481-3.76V67.657L36.075,71.228V86.78" transform="translate(-11.193 -20.597)"/><path class="a" d="M19.88,64.731l10.608-2.986,9.836,3.171-9.836,3.339L19.88,64.731" transform="translate(-6.324 -18.82)"/><path class="a" d="M10.979,56.093.5,52.333V36.97l10.481,3.571V56.093" transform="translate(-0.498 -11.372)"/><path class="a" d="M18.233,56.093l10.482-3.76V36.97L18.233,40.541V56.093" transform="translate(-5.829 -11.372)"/><path class="a" d="M2.038,34.043l10.609-2.986,9.836,3.171-9.836,3.34L2.038,34.043" transform="translate(-0.961 -9.595)"/><path class="a" d="M45.948,56.093l-10.482-3.76V36.97l10.482,3.571V56.093" transform="translate(-11.01 -11.372)"/><path class="a" d="M53.2,56.093l10.482-3.76V36.97L53.2,40.541V56.093" transform="translate(-16.341 -11.372)"/><path class="a" d="M37.008,34.043l10.608-2.986,9.836,3.171-9.836,3.34L37.008,34.043" transform="translate(-11.473 -9.595)"/><path class="a" d="M63.79,25.405,53.308,21.646V6.283L63.79,9.853V25.405" transform="translate(-16.373 -2.147)"/><path class="a" d="M71.044,25.405l10.482-3.759V6.283L71.044,9.853V25.405" transform="translate(-21.705 -2.147)"/><path class="a" d="M54.849,3.356,65.457.37l9.836,3.171-9.836,3.34L54.849,3.356" transform="translate(-16.836 -0.37)"/><path class="a" d="M98.76,25.405,88.278,21.646V6.283L98.76,9.853V25.405" transform="translate(-26.886 -2.147)"/><path class="a" d="M106.013,25.405l10.482-3.759V6.283l-10.482,3.57V25.405" transform="translate(-32.217 -2.147)"/><path class="a" d="M89.818,3.356,100.426.37l9.836,3.171-9.836,3.34L89.818,3.356" transform="translate(-27.349 -0.37)"/><path class="b" d="M88.968,80.69,85.447,92.921h-1.53l-2.741-9.085-2.513,9.085H77.1L73.443,80.69h1.892L78,89.8l2.538-9.115h1.4l2.758,9.144,2.74-9.144Z" transform="translate(-22.426 -24.515)"/><path class="b" d="M88.968,80.69,85.447,92.921h-1.53l-2.741-9.085-2.513,9.085H77.1L73.443,80.69h1.892L78,89.8l2.538-9.115h1.4l2.758,9.144,2.74-9.144Z" transform="translate(-22.426 -24.515)"/><path class="b" d="M105.694,89.127l1.773.364a4.986,4.986,0,0,1-1.885,2.6,5.431,5.431,0,0,1-3.3,1.028,5.129,5.129,0,0,1-4.05-1.764,7.712,7.712,0,0,1,.06-9.347,5.186,5.186,0,0,1,4.038-1.8,4.875,4.875,0,0,1,3.851,1.658,7.457,7.457,0,0,1,1.493,4.96H98.8q0,2.775,1.16,3.744a3.77,3.77,0,0,0,2.452.969,3.352,3.352,0,0,0,3.286-2.408Zm-.1-3.722a5.307,5.307,0,0,0-.339-1.828,3.119,3.119,0,0,0-1.063-1.362,2.914,2.914,0,0,0-1.8-.563,3.212,3.212,0,0,0-2.4,1.017A4.212,4.212,0,0,0,98.884,85.4Z" transform="translate(-29.412 -24.369)"/><path class="b" d="M105.694,89.127l1.773.364a4.986,4.986,0,0,1-1.885,2.6,5.431,5.431,0,0,1-3.3,1.028,5.129,5.129,0,0,1-4.05-1.764,7.712,7.712,0,0,1,.06-9.347,5.186,5.186,0,0,1,4.038-1.8,4.875,4.875,0,0,1,3.851,1.658,7.457,7.457,0,0,1,1.493,4.96H98.8q0,2.775,1.16,3.744a3.77,3.77,0,0,0,2.452.969,3.352,3.352,0,0,0,3.286-2.408Zm-.1-3.722a5.307,5.307,0,0,0-.339-1.828,3.119,3.119,0,0,0-1.063-1.362,2.914,2.914,0,0,0-1.8-.563,3.212,3.212,0,0,0-2.4,1.017A4.212,4.212,0,0,0,98.884,85.4Z" transform="translate(-29.412 -24.369)"/><path class="b" d="M116.893,91.08h-.916V74.566h1.906v6.322a3.984,3.984,0,0,1,3.6-2.378A4.448,4.448,0,0,1,125,80.171,7.232,7.232,0,0,1,126.42,85a7.375,7.375,0,0,1-1.4,4.576,4.349,4.349,0,0,1-3.633,1.85,4.175,4.175,0,0,1-3.819-2.364l-.679,2.024Zm.99-4.8a3.723,3.723,0,0,0,1.155,2.734,3.329,3.329,0,0,0,2.159.851,2.738,2.738,0,0,0,2.341-1.261,5.9,5.9,0,0,0,.889-3.454,6.889,6.889,0,0,0-.858-3.714,2.685,2.685,0,0,0-2.383-1.351,2.987,2.987,0,0,0-2.159.962,4.082,4.082,0,0,0-1.143,2.487v2.747Z" transform="translate(-35.212 -22.674)"/><path class="b" d="M116.893,91.08h-.916V74.566h1.906v6.322a3.984,3.984,0,0,1,3.6-2.378A4.448,4.448,0,0,1,125,80.171,7.232,7.232,0,0,1,126.42,85a7.375,7.375,0,0,1-1.4,4.576,4.349,4.349,0,0,1-3.633,1.85,4.175,4.175,0,0,1-3.819-2.364l-.679,2.024Zm.99-4.8a3.723,3.723,0,0,0,1.155,2.734,3.329,3.329,0,0,0,2.159.851,2.738,2.738,0,0,0,2.341-1.261,5.9,5.9,0,0,0,.889-3.454,6.889,6.889,0,0,0-.858-3.714,2.685,2.685,0,0,0-2.383-1.351,2.987,2.987,0,0,0-2.159.962,4.082,4.082,0,0,0-1.143,2.487v2.747Z" transform="translate(-35.212 -22.674)"/><path class="b" d="M137.853,89.606l1.817-.375q.606,2.3,3.828,2.3a3.63,3.63,0,0,0,2.01-.531,1.684,1.684,0,0,0,.824-1.5q0-1.436-2.1-1.823l-2.576-.49a4.7,4.7,0,0,1-2.409-1.138,2.943,2.943,0,0,1-.9-2.241,3.239,3.239,0,0,1,1.222-2.573,4.922,4.922,0,0,1,3.29-1.036q3.98,0,4.912,3.111l-1.743.375a2.979,2.979,0,0,0-3.083-1.905,3.48,3.48,0,0,0-1.905.476,1.5,1.5,0,0,0-.743,1.331q0,1.348,1.9,1.7l2.381.438q3.74.678,3.739,3.626a3.236,3.236,0,0,1-1.392,2.722,6.052,6.052,0,0,1-3.705,1.038q-4.346,0-5.375-3.51Z" transform="translate(-41.788 -24.369)"/><path class="b" d="M137.853,89.606l1.817-.375q.606,2.3,3.828,2.3a3.63,3.63,0,0,0,2.01-.531,1.684,1.684,0,0,0,.824-1.5q0-1.436-2.1-1.823l-2.576-.49a4.7,4.7,0,0,1-2.409-1.138,2.943,2.943,0,0,1-.9-2.241,3.239,3.239,0,0,1,1.222-2.573,4.922,4.922,0,0,1,3.29-1.036q3.98,0,4.912,3.111l-1.743.375a2.979,2.979,0,0,0-3.083-1.905,3.48,3.48,0,0,0-1.905.476,1.5,1.5,0,0,0-.743,1.331q0,1.348,1.9,1.7l2.381.438q3.74.678,3.739,3.626a3.236,3.236,0,0,1-1.392,2.722,6.052,6.052,0,0,1-3.705,1.038q-4.346,0-5.375-3.51Z" transform="translate(-41.788 -24.369)"/><path class="b" d="M163.444,89.127l1.772.364a4.977,4.977,0,0,1-1.886,2.6,5.426,5.426,0,0,1-3.3,1.028,5.127,5.127,0,0,1-4.05-1.764,7.71,7.71,0,0,1,.061-9.347,5.185,5.185,0,0,1,4.038-1.8,4.876,4.876,0,0,1,3.85,1.658,7.452,7.452,0,0,1,1.493,4.96h-8.878q0,2.775,1.16,3.744a3.773,3.773,0,0,0,2.453.969,3.352,3.352,0,0,0,3.286-2.408Zm-.1-3.722A5.317,5.317,0,0,0,163,83.577a3.122,3.122,0,0,0-1.063-1.362,2.914,2.914,0,0,0-1.8-.563,3.214,3.214,0,0,0-2.4,1.017,4.212,4.212,0,0,0-1.106,2.735Z" transform="translate(-46.773 -24.369)"/><path class="b" d="M163.444,89.127l1.772.364a4.977,4.977,0,0,1-1.886,2.6,5.426,5.426,0,0,1-3.3,1.028,5.127,5.127,0,0,1-4.05-1.764,7.71,7.71,0,0,1,.061-9.347,5.185,5.185,0,0,1,4.038-1.8,4.876,4.876,0,0,1,3.85,1.658,7.452,7.452,0,0,1,1.493,4.96h-8.878q0,2.775,1.16,3.744a3.773,3.773,0,0,0,2.453.969,3.352,3.352,0,0,0,3.286-2.408Zm-.1-3.722A5.317,5.317,0,0,0,163,83.577a3.122,3.122,0,0,0-1.063-1.362,2.914,2.914,0,0,0-1.8-.563,3.214,3.214,0,0,0-2.4,1.017,4.212,4.212,0,0,0-1.106,2.735Z" transform="translate(-46.773 -24.369)"/><path class="b" d="M174.983,92.775h-1.905V80.544h1.67V83.4a6.073,6.073,0,0,1,1.772-2.6,3.24,3.24,0,0,1,1.821-.594q.29,0,.75.045v1.817H178.7a3.346,3.346,0,0,0-2.609,1.167,4.727,4.727,0,0,0-1.112,3.067v6.475Z" transform="translate(-52.377 -24.369)"/><path class="b" d="M174.983,92.775h-1.905V80.544h1.67V83.4a6.073,6.073,0,0,1,1.772-2.6,3.24,3.24,0,0,1,1.821-.594q.29,0,.75.045v1.817H178.7a3.346,3.346,0,0,0-2.609,1.167,4.727,4.727,0,0,0-1.112,3.067v6.475Z" transform="translate(-52.377 -24.369)"/><path class="b" d="M194.057,80.69l-4.223,12.231h-1.974L183.495,80.69H185.6l3.4,9.942,3.369-9.942Z" transform="translate(-55.509 -24.515)"/><path class="b" d="M194.057,80.69l-4.223,12.231h-1.974L183.495,80.69H185.6l3.4,9.942,3.369-9.942Z" transform="translate(-55.509 -24.515)"/><path class="b" d="M200.774,74.566h2.039v2.113h-2.039Zm.089,4.283h1.905V91.08h-1.905Z" transform="translate(-60.703 -22.674)"/><path class="b" d="M200.774,74.566h2.039v2.113h-2.039Zm.089,4.283h1.905V91.08h-1.905Z" transform="translate(-60.703 -22.674)"/><path class="b" d="M214.342,88.492l1.713.3a5.472,5.472,0,0,1-1.609,3.174,4.857,4.857,0,0,1-6.963-.72,7.674,7.674,0,0,1-1.325-4.558,7.47,7.47,0,0,1,1.4-4.636,4.513,4.513,0,0,1,3.8-1.849,4.342,4.342,0,0,1,3.2,1.2,5.354,5.354,0,0,1,1.494,3.087l-1.713.327q-.484-3.027-2.926-3.028A2.7,2.7,0,0,0,209,83.122a6.388,6.388,0,0,0-.847,3.466,6.7,6.7,0,0,0,.84,3.647,2.662,2.662,0,0,0,2.364,1.3q2.356,0,2.986-3.043Z" transform="translate(-62.322 -24.369)"/><path class="b" d="M214.342,88.492l1.713.3a5.472,5.472,0,0,1-1.609,3.174,4.857,4.857,0,0,1-6.963-.72,7.674,7.674,0,0,1-1.325-4.558,7.47,7.47,0,0,1,1.4-4.636,4.513,4.513,0,0,1,3.8-1.849,4.342,4.342,0,0,1,3.2,1.2,5.354,5.354,0,0,1,1.494,3.087l-1.713.327q-.484-3.027-2.926-3.028A2.7,2.7,0,0,0,209,83.122a6.388,6.388,0,0,0-.847,3.466,6.7,6.7,0,0,0,.84,3.647,2.662,2.662,0,0,0,2.364,1.3q2.356,0,2.986-3.043Z" transform="translate(-62.322 -24.369)"/><path class="b" d="M231.8,89.127l1.772.364a4.979,4.979,0,0,1-1.886,2.6,5.426,5.426,0,0,1-3.3,1.028,5.128,5.128,0,0,1-4.05-1.764,7.71,7.71,0,0,1,.061-9.347,5.186,5.186,0,0,1,4.038-1.8,4.876,4.876,0,0,1,3.85,1.658,7.452,7.452,0,0,1,1.493,4.96H224.9q0,2.775,1.16,3.744a3.772,3.772,0,0,0,2.453.969,3.353,3.353,0,0,0,3.286-2.408Zm-.1-3.722a5.307,5.307,0,0,0-.339-1.828,3.118,3.118,0,0,0-1.063-1.362,2.915,2.915,0,0,0-1.8-.563,3.211,3.211,0,0,0-2.4,1.017,4.207,4.207,0,0,0-1.106,2.735Z" transform="translate(-67.322 -24.369)"/><path class="b" d="M231.8,89.127l1.772.364a4.979,4.979,0,0,1-1.886,2.6,5.426,5.426,0,0,1-3.3,1.028,5.128,5.128,0,0,1-4.05-1.764,7.71,7.71,0,0,1,.061-9.347,5.186,5.186,0,0,1,4.038-1.8,4.876,4.876,0,0,1,3.85,1.658,7.452,7.452,0,0,1,1.493,4.96H224.9q0,2.775,1.16,3.744a3.772,3.772,0,0,0,2.453.969,3.353,3.353,0,0,0,3.286-2.408Zm-.1-3.722a5.307,5.307,0,0,0-.339-1.828,3.118,3.118,0,0,0-1.063-1.362,2.915,2.915,0,0,0-1.8-.563,3.211,3.211,0,0,0-2.4,1.017,4.207,4.207,0,0,0-1.106,2.735Z" transform="translate(-67.322 -24.369)"/><path class="b" d="M240.042,89.606l1.818-.375q.605,2.3,3.827,2.3A3.628,3.628,0,0,0,247.7,91a1.685,1.685,0,0,0,.824-1.5q0-1.436-2.1-1.823l-2.576-.49a4.7,4.7,0,0,1-2.408-1.138,2.943,2.943,0,0,1-.9-2.241,3.238,3.238,0,0,1,1.222-2.573,4.921,4.921,0,0,1,3.291-1.036q3.979,0,4.911,3.111l-1.743.375a2.979,2.979,0,0,0-3.083-1.905,3.477,3.477,0,0,0-1.9.476,1.5,1.5,0,0,0-.744,1.331q0,1.348,1.9,1.7l2.381.438q3.739.678,3.739,3.626a3.235,3.235,0,0,1-1.392,2.722,6.053,6.053,0,0,1-3.7,1.038q-4.347,0-5.376-3.51Z" transform="translate(-72.508 -24.369)"/><path class="b" d="M240.042,89.606l1.818-.375q.605,2.3,3.827,2.3A3.628,3.628,0,0,0,247.7,91a1.685,1.685,0,0,0,.824-1.5q0-1.436-2.1-1.823l-2.576-.49a4.7,4.7,0,0,1-2.408-1.138,2.943,2.943,0,0,1-.9-2.241,3.238,3.238,0,0,1,1.222-2.573,4.921,4.921,0,0,1,3.291-1.036q3.979,0,4.911,3.111l-1.743.375a2.979,2.979,0,0,0-3.083-1.905,3.477,3.477,0,0,0-1.9.476,1.5,1.5,0,0,0-.744,1.331q0,1.348,1.9,1.7l2.381.438q3.739.678,3.739,3.626a3.235,3.235,0,0,1-1.392,2.722,6.053,6.053,0,0,1-3.7,1.038q-4.347,0-5.376-3.51Z" transform="translate(-72.508 -24.369)"/><path class="b" d="M178.308,41.729V38.792a.726.726,0,0,1,.744-.744h13.168a.735.735,0,0,1,.76.742v2.52a4.112,4.112,0,0,1-.992,1.85l-6.82,9.739a14.6,14.6,0,0,1,7.511,1.613,1.343,1.343,0,0,1,.7,1.147V58.79c0,.432-.473.932-.969.672a15.166,15.166,0,0,0-13.914.025c-.458.244-.937-.249-.937-.681v-2.98a3.543,3.543,0,0,1,.49-2.019l7.9-11.337h-6.88a.732.732,0,0,1-.761-.74" transform="translate(-53.724 -11.696)"/><path class="b" d="M109.22,59.917h-4.006a.755.755,0,0,1-.717-.677l0-20.561a.756.756,0,0,1,.773-.74H109a.755.755,0,0,1,.729.69v2.685h.075a5.285,5.285,0,0,1,5.272-3.808c2.506,0,4.076,1.211,5.2,3.808a5.917,5.917,0,0,1,10.171-1.558c1.271,1.73,1.01,4.24,1.01,6.447l0,12.975a.756.756,0,0,1-.773.74h-4a.752.752,0,0,1-.719-.738v-10.9a26.23,26.23,0,0,0-.113-3.851,2.088,2.088,0,0,0-2.355-1.774,2.657,2.657,0,0,0-2.394,1.688,12.439,12.439,0,0,0-.374,3.937v10.9a.756.756,0,0,1-.773.74h-4a.752.752,0,0,1-.719-.738l0-10.9c0-2.293.374-5.668-2.468-5.668-2.88,0-2.767,3.288-2.767,5.668l0,10.9a.755.755,0,0,1-.773.74" transform="translate(-31.761 -11.533)"/><path class="b" d="M209.6,37.505c5.9,0,9.089,5.105,9.089,11.6,0,6.273-3.524,11.25-9.089,11.25-5.787,0-8.941-5.106-8.941-11.466,0-6.4,3.191-11.379,8.941-11.379Zm.037,4.726c-2.931,0-3.116,4.024-3.116,6.533s-.037,7.346,3.079,7.346c3.08,0,3.228-3.8,3.228-6.437a19.149,19.149,0,0,0-.593-5.452,2.492,2.492,0,0,0-2.6-1.99Z" transform="translate(-60.668 -11.533)"/><path class="b" d="M236.616,59.917h-3.991a.752.752,0,0,1-.719-.738L231.9,38.61a.759.759,0,0,1,.77-.671h3.716a.761.761,0,0,1,.712.576v3.145h.075c1.122-2.812,2.692-4.153,5.459-4.153a5.252,5.252,0,0,1,4.675,2.423c1.047,1.644,1.047,4.413,1.047,6.4V59.269a.76.76,0,0,1-.768.648H243.57a.755.755,0,0,1-.713-.648V48.106c0-2.25.262-5.538-2.506-5.538a2.621,2.621,0,0,0-2.318,1.644,9.142,9.142,0,0,0-.636,3.894V59.177a.767.767,0,0,1-.78.74" transform="translate(-70.06 -11.533)"/><path class="b" d="M159.2,50.013a7.863,7.863,0,0,1-.749,4.25,3.254,3.254,0,0,1-2.774,1.821c-1.536,0-2.436-1.171-2.436-2.905,0-3.412,3.061-4.033,5.959-4.033v.867Zm4.039,9.768a.83.83,0,0,1-.947.093,9.786,9.786,0,0,1-2.3-2.67c-2.2,2.24-3.757,2.912-6.605,2.912-3.373,0-6-2.081-6-6.244a6.8,6.8,0,0,1,4.272-6.548c2.174-.954,5.21-1.127,7.533-1.388v-.52a5.13,5.13,0,0,0-.487-2.905,2.676,2.676,0,0,0-2.248-1.041,3.05,3.05,0,0,0-3.22,2.406.846.846,0,0,1-.7.736l-3.883-.42a.705.705,0,0,1-.6-.838c.892-4.711,5.146-6.134,8.959-6.134a9.086,9.086,0,0,1,6.033,1.995c1.949,1.821,1.761,4.249,1.761,6.895v6.242a5.471,5.471,0,0,0,1.513,3.713.755.755,0,0,1-.014,1.064c-.818.686-2.272,1.949-3.072,2.661l-.009-.009Z" transform="translate(-44.656 -11.448)"/><path class="b" d="M84.756,50.013a7.859,7.859,0,0,1-.749,4.25,3.253,3.253,0,0,1-2.773,1.821c-1.536,0-2.436-1.171-2.436-2.905,0-3.412,3.061-4.033,5.958-4.033v.867ZM88.8,59.781a.83.83,0,0,1-.947.093,9.773,9.773,0,0,1-2.3-2.67c-2.2,2.24-3.757,2.912-6.6,2.912-3.373,0-6-2.081-6-6.244a6.8,6.8,0,0,1,4.272-6.548c2.174-.954,5.21-1.127,7.533-1.388v-.52a5.134,5.134,0,0,0-.487-2.905A2.678,2.678,0,0,0,82.02,41.47a3.051,3.051,0,0,0-3.22,2.406.846.846,0,0,1-.7.736l-3.883-.42a.705.705,0,0,1-.6-.838c.892-4.711,5.146-6.134,8.959-6.134a9.088,9.088,0,0,1,6.034,1.995c1.949,1.821,1.761,4.249,1.761,6.895v6.242a5.473,5.473,0,0,0,1.512,3.713.755.755,0,0,1-.013,1.064c-.818.686-2.273,1.949-3.072,2.661l-.009-.009Z" transform="translate(-22.278 -11.448)"/></g></g></svg>