<svg xmlns="http://www.w3.org/2000/svg" width="77.586" height="77.143" viewBox="0 0 77.586 77.143"><defs><style>.a,.b,.d{fill:none;}.a{stroke:#191919;stroke-width:3px;}.c,.e{stroke:none;}.e{fill:#191919;}</style></defs><g transform="translate(-1151 -1291)"><g class="a" transform="translate(1151 1291)"><ellipse class="c" cx="38.793" cy="38.571" rx="38.793" ry="38.571"/><ellipse class="d" cx="38.793" cy="38.571" rx="37.293" ry="37.071"/></g><g class="b" transform="translate(1206.172 1315.857) rotate(90)"><path class="c" d="M11.98,4.447a3,3,0,0,1,5.184,0l9.35,16.042A3,3,0,0,1,23.922,25H5.221a3,3,0,0,1-2.592-4.511Z"/><path class="e" d="M 14.5714111328125 5.95753288269043 L 14.57142066955566 5.957542419433594 L 5.22096061706543 22.00003242492676 L 23.92189025878906 22.00004196166992 L 14.5714111328125 5.95753288269043 M 14.57141971588135 2.957540512084961 C 15.57800579071045 2.957540512084961 16.58459091186523 3.453977584838867 17.16329193115234 4.446853637695312 L 26.51375961303711 20.48935317993164 C 27.6794605255127 22.48932266235352 26.23678016662598 25.00003242492676 23.92189025878906 25.00003242492676 L 5.22096061706543 25.00003242492676 C 2.906061172485352 25.00003242492676 1.463380813598633 22.48932266235352 2.629079818725586 20.48935317993164 L 11.97953987121582 4.446853637695312 C 12.55824661254883 3.453977584838867 13.56483364105225 2.957540512084961 14.57141971588135 2.957540512084961 Z"/></g></g></svg>