<svg xmlns="http://www.w3.org/2000/svg" xmlns:xlink="http://www.w3.org/1999/xlink" width="674.2" height="536.24" viewBox="0 0 674.2 536.24"><defs><style>.a{opacity:0.9;}.b,.c,.d{fill:#fff;}.c{opacity:0.2;}.d{opacity:0.5;}.e{fill:#383838;}.f{fill:#262626;}.g{fill:#191919;}.h{fill:#7dc3ea;}.i{fill:url(#a);}.j{fill:#00000a;}.k{fill:#d4ecff;}</style><linearGradient id="a" x1="-5.118" y1="7.146" x2="-3.992" y2="7.058" gradientUnits="objectBoundingBox"><stop offset="0" stop-color="#3919bb"/><stop offset="1" stop-color="#6507fa"/></linearGradient></defs><g transform="translate(-169.251 -40.072)"><g class="a" transform="translate(235.433 127.989)"><path class="b" d="M562.891,153.043,510.681,122.9l52.208-30.142.461.269L615.1,122.9ZM514.377,122.9l48.513,28.009L611.4,122.9,562.889,94.894Z" transform="translate(-7.089 -92.753)"/><path class="b" d="M502.534,153.042,450.328,122.9l52.206-30.143L554.741,122.9ZM454.024,122.9l48.51,28.007,48.51-28.007-48.51-28.007Z" transform="translate(-47.453 -92.754)"/><path class="b" d="M532.713,170.465l-.462-.267-51.746-29.875,52.206-30.143,52.208,30.145ZM484.2,140.323l48.513,28.007,48.51-28.006-48.512-28.009Z" transform="translate(-27.271 -81.101)"/><path class="b" d="M562.892,187.887l-.462-.267-51.747-29.875L562.89,127.6l.461.267L615.1,157.747Zm-48.513-30.142,48.513,28.007,48.51-28.006L562.89,129.738Z" transform="translate(-7.088 -69.448)"/><path class="b" d="M442.183,153.04l-.462-.267L389.973,122.9l52.208-30.142.461.269L494.389,122.9ZM393.669,122.9l48.513,28.007,48.51-28.006L442.181,94.893Z" transform="translate(-87.817 -92.754)"/><path class="b" d="M472.357,170.465l-52.206-30.143,52.206-30.142,52.206,30.143Zm-48.51-30.143,48.51,28.009,48.512-28.007-48.512-28.007Z" transform="translate(-67.635 -81.101)"/><path class="b" d="M502.536,187.888l-.461-.267-51.747-29.875L502.534,127.6l.461.267,51.747,29.876Zm-48.512-30.142,48.512,28.007,48.51-28.007-48.512-28.009Z" transform="translate(-47.453 -69.449)"/><path class="b" d="M532.714,205.311l-.462-.267-51.746-29.876,52.206-30.142.461.267,51.748,29.875ZM484.2,175.168l48.513,28.009,48.51-28.009L532.712,147.16Z" transform="translate(-27.27 -57.797)"/><path class="b" d="M562.891,222.734l-.461-.267-51.747-29.876,52.208-30.142L615.1,192.592Zm-48.512-30.143L562.891,220.6,611.4,192.592l-48.512-28.009Z" transform="translate(-7.088 -46.144)"/><path class="b" d="M381.827,153.041l-.461-.267L329.619,122.9l52.206-30.143.462.269L434.033,122.9ZM333.315,122.9l48.512,28.007,48.51-28.007L381.825,94.892Z" transform="translate(-128.181 -92.754)"/><path class="b" d="M412.005,170.464l-.462-.267L359.8,140.322,412,110.179l.461.267,51.747,29.876Zm-48.512-30.142,48.512,28.007,48.51-28.007L412,112.315Z" transform="translate(-107.999 -81.102)"/><path class="b" d="M442.184,187.887l-.462-.267-51.747-29.875L442.182,127.6l52.206,30.145ZM393.67,157.745l48.513,28.007,48.508-28.006-48.51-28.011Z" transform="translate(-87.817 -69.45)"/><path class="b" d="M472.358,205.311l-52.206-30.145,52.2-30.14.462.267,51.746,29.875Zm-48.51-30.145,48.51,28.011,48.512-28.009L472.357,147.16Z" transform="translate(-67.634 -57.797)"/><path class="b" d="M502.537,222.734l-.461-.267-51.747-29.876,52.206-30.142.461.267,51.748,29.875Zm-48.512-30.143L502.537,220.6l48.51-28.009-48.512-28.007Z" transform="translate(-47.452 -46.144)"/><path class="b" d="M532.715,240.157l-.462-.269-51.746-29.875,52.206-30.142.461.267,51.747,29.875ZM484.2,210.014l48.513,28.007,48.51-28.007-48.512-28.007Z" transform="translate(-27.269 -34.492)"/><path class="b" d="M562.892,257.58l-.461-.269-51.747-29.875,52.206-30.142.462.267L615.1,227.437ZM514.38,227.437l48.512,28.007L611.4,227.437,562.89,199.429Z" transform="translate(-7.087 -22.84)"/><path class="b" d="M321.474,153.039l-.462-.267L269.264,122.9l52.208-30.142.461.269L373.68,122.9ZM272.96,122.9,321.474,150.9l48.51-28.006L321.472,94.892Z" transform="translate(-168.546 -92.754)"/><path class="b" d="M351.65,170.464l-52.208-30.143,52.206-30.142.462.267,51.747,29.876Zm-48.512-30.143L351.65,168.33l48.512-28.007-48.513-28.007Z" transform="translate(-148.363 -81.102)"/><path class="b" d="M381.828,187.887l-.461-.267L329.62,157.745,381.826,127.6l.461.267,51.747,29.876Zm-48.512-30.142,48.512,28.007,48.51-28.007-48.512-28.009Z" transform="translate(-128.181 -69.45)"/><path class="b" d="M412.006,205.31l-.462-.267L359.8,175.167,412,145.025l.461.267,51.747,29.875Zm-48.513-30.143,48.513,28.009,48.51-28.009L412,147.159Z" transform="translate(-107.998 -57.797)"/><path class="b" d="M442.183,222.733,389.975,192.59l52.208-30.142,52.206,30.143ZM393.671,192.59,442.183,220.6l48.51-28.007-48.51-28.009Z" transform="translate(-87.816 -46.145)"/><path class="b" d="M472.36,240.155l-.461-.267-51.747-29.876,52.206-30.14.462.267,51.746,29.875Zm-48.512-30.143,48.512,28.007,48.512-28.006-48.513-28.007Z" transform="translate(-67.634 -34.492)"/><path class="b" d="M502.538,257.58,450.33,227.435l52.206-30.14.461.267,51.747,29.875Zm-48.512-30.145,48.512,28.009,48.51-28.007-48.512-28.007Z" transform="translate(-47.451 -22.84)"/><path class="b" d="M532.716,275l-.462-.267L480.508,244.86l52.206-30.143.461.269,51.747,29.875ZM484.2,244.86l48.513,28.007,48.51-28.007-48.512-28.007Z" transform="translate(-27.269 -11.188)"/><path class="b" d="M562.893,292.425l-.461-.267-51.747-29.875,52.206-30.143.462.267L615.1,262.283Zm-48.512-30.142,48.512,28.007L611.4,262.283l-48.513-28.007Z" transform="translate(-7.086 0.464)"/><path class="b" d="M261.118,153.04l-.461-.267L208.91,122.9l52.206-30.143.461.269L313.324,122.9ZM212.606,122.9l48.512,28.007,48.51-28.007L261.116,94.891Z" transform="translate(-208.91 -92.755)"/><path class="b" d="M291.3,170.463l-.462-.267-51.746-29.875,52.206-30.143.461.267L343.5,140.321Zm-48.513-30.142L291.3,168.329l48.51-28.007-48.512-28.007Z" transform="translate(-188.727 -81.103)"/><path class="b" d="M321.475,187.886l-.462-.267-51.747-29.875L321.473,127.6l52.208,30.145Zm-48.513-30.142,48.513,28.007,48.51-28.006-48.512-28.011Z" transform="translate(-168.545 -69.45)"/><path class="b" d="M351.651,205.31l-52.208-30.145,52.206-30.14.462.267,51.746,29.875Zm-48.512-30.145,48.512,28.011,48.512-28.009-48.513-28.007Z" transform="translate(-148.363 -57.797)"/><path class="b" d="M381.829,222.733l-.461-.267L329.621,192.59l52.206-30.142.461.267,51.747,29.875ZM333.317,192.59,381.829,220.6l48.51-28.009-48.512-28.007Z" transform="translate(-128.18 -46.145)"/><path class="b" d="M412.005,240.156,359.8,210.013l52.206-30.142,52.206,30.142Zm-48.512-30.143,48.512,28.007,48.51-28.007-48.51-28.007Z" transform="translate(-107.997 -34.493)"/><path class="b" d="M442.185,257.579l-.462-.269-51.747-29.875,52.208-30.142.461.267,51.747,29.875Zm-48.513-30.143,48.513,28.007,48.51-28.007-48.512-28.007Z" transform="translate(-87.816 -22.841)"/><path class="b" d="M472.361,275l-.461-.267-51.747-29.875,52.206-30.143,52.208,30.145Zm-48.512-30.142,48.512,28.007,48.512-28.006-48.513-28.009Z" transform="translate(-67.633 -11.189)"/><path class="b" d="M502.539,292.425l-52.208-30.143,52.206-30.142.461.267,51.748,29.876Zm-48.512-30.143,48.512,28.009,48.51-28.007-48.512-28.007Z" transform="translate(-47.451 0.464)"/><path class="b" d="M532.717,309.848l-.462-.267-51.746-29.875,52.206-30.143.461.267,51.747,29.876ZM484.2,279.706l48.513,28.007,48.51-28.007L532.715,251.7Z" transform="translate(-27.268 12.116)"/><path class="b" d="M562.894,327.271l-.461-.267-51.748-29.876,52.206-30.142.462.267L615.1,297.128Zm-48.512-30.143,48.512,28.009,48.512-28.009L562.892,269.12Z" transform="translate(-7.086 23.769)"/><path class="b" d="M261.119,187.886l-.461-.267-51.747-29.875L261.117,127.6l.461.267,51.747,29.876Zm-48.512-30.142,48.512,28.007,48.51-28.007-48.512-28.009Z" transform="translate(-208.909 -69.45)"/><path class="b" d="M291.3,205.309l-.462-.267-51.746-29.876L291.3,145.024l.461.267L343.5,175.166Zm-48.512-30.143L291.3,203.175l48.51-28.009L291.3,147.158Z" transform="translate(-188.727 -57.798)"/><path class="b" d="M321.474,222.732l-.461-.267-51.747-29.876,52.208-30.142,52.208,30.143Zm-48.512-30.143L321.474,220.6l48.512-28.007-48.512-28.009Z" transform="translate(-168.545 -46.146)"/><path class="b" d="M351.652,240.154l-.461-.267-51.747-29.876,52.206-30.14.462.267,51.746,29.875ZM303.14,210.011l48.512,28.007,48.512-28.006L351.65,182.005Z" transform="translate(-148.362 -34.493)"/><path class="b" d="M381.83,257.579l-52.208-30.145,52.206-30.14,52.206,30.142Zm-48.512-30.145,48.512,28.009,48.508-28.007-48.51-28.007Z" transform="translate(-128.179 -22.841)"/><path class="b" d="M412.006,275,359.8,244.859,412,214.716l.461.269,51.747,29.875Zm-48.512-30.142,48.512,28.007,48.51-28.007L412,216.852Z" transform="translate(-107.997 -11.189)"/><path class="b" d="M442.186,292.424l-.462-.267-51.747-29.875,52.208-30.143.461.267,51.747,29.876Zm-48.513-30.142,48.513,28.007,48.51-28.007-48.512-28.007Z" transform="translate(-87.815 0.463)"/><path class="b" d="M472.362,309.847l-.461-.267-51.747-29.875,52.206-30.143,52.208,30.145ZM423.85,279.705l48.512,28.007,48.512-28.005L472.36,251.7Z" transform="translate(-67.633 12.116)"/><path class="b" d="M502.54,327.269l-.461-.267-51.747-29.876,52.206-30.14.461.267,51.747,29.875Zm-48.512-30.143,48.512,28.009,48.51-28.007L502.538,269.12Z" transform="translate(-47.45 23.769)"/><path class="b" d="M532.718,344.694,480.51,314.549l52.206-30.14.461.267,51.747,29.875ZM484.2,314.549l48.513,28.009,48.51-28.007-48.512-28.007Z" transform="translate(-27.267 35.421)"/><path class="b" d="M562.895,362.117l-.461-.269-51.747-29.875,52.206-30.142.462.267L615.1,331.974Zm-48.512-30.143,48.512,28.007,48.512-28.007-48.513-28.007Z" transform="translate(-7.085 47.073)"/><path class="b" d="M261.12,222.732l-52.208-30.145,52.206-30.14.461.267,51.747,29.875Zm-48.512-30.145L261.12,220.6l48.51-28.009-48.512-28.007Z" transform="translate(-208.909 -46.146)"/><path class="b" d="M291.3,240.155l-.462-.267L239.09,210.012,291.3,179.87l.461.267L343.5,210.012Zm-48.512-30.143L291.3,238.019l48.51-28.007L291.3,182Z" transform="translate(-188.726 -34.494)"/><path class="b" d="M321.475,257.578l-.461-.269-51.747-29.875,52.206-30.142.462.267,51.747,29.875Zm-48.512-30.143,48.512,28.007,48.512-28.007-48.513-28.007Z" transform="translate(-168.544 -22.841)"/><path class="b" d="M351.653,275l-.461-.267-51.747-29.875,52.206-30.143,52.208,30.145Zm-48.512-30.142,48.512,28.007,48.512-28.006-48.513-28.009Z" transform="translate(-148.361 -11.19)"/><path class="b" d="M381.829,292.422l-52.206-30.142,52.206-30.142,52.206,30.143Zm-48.51-30.142,48.51,28.007,48.51-28.006-48.51-28.007Z" transform="translate(-128.179 0.463)"/><path class="b" d="M412.008,309.847,359.8,279.7l52.206-30.142.461.267,51.747,29.876ZM363.495,279.7l48.513,28.009,48.51-28.007L412.006,251.7Z" transform="translate(-107.997 12.116)"/><path class="b" d="M442.185,327.27l-.461-.267-51.747-29.876,52.208-30.142.461.267,51.747,29.875Zm-48.512-30.143,48.512,28.009L490.7,297.127l-48.512-28.007Z" transform="translate(-87.815 23.768)"/><path class="b" d="M472.363,344.693l-.461-.267L420.155,314.55l52.206-30.142.462.267,51.746,29.875ZM423.851,314.55l48.512,28.007,48.512-28.007-48.513-28.007Z" transform="translate(-67.632 35.42)"/><path class="b" d="M502.541,362.116l-.461-.269-51.747-29.875,52.206-30.142,52.208,30.143Zm-48.512-30.143,48.512,28.007,48.51-28.006-48.512-28.009Z" transform="translate(-47.449 47.073)"/><path class="b" d="M261.121,257.578l-52.208-30.145,52.206-30.14.461.267,51.747,29.875Zm-48.512-30.145,48.512,28.009,48.51-28.007-48.512-28.007Z" transform="translate(-208.908 -22.841)"/><path class="b" d="M291.3,275l-.462-.267-51.746-29.875L291.3,214.715l.461.269,51.747,29.875Zm-48.513-30.142L291.3,272.866l48.51-28.007L291.3,216.851Z" transform="translate(-188.725 -11.19)"/><path class="b" d="M321.478,292.423l-.462-.267-51.747-29.875,52.206-30.143.462.267,51.747,29.876Zm-48.513-30.142,48.513,28.007,48.51-28.007-48.513-28.007Z" transform="translate(-168.543 0.463)"/><path class="b" d="M351.652,309.846,299.446,279.7l52.206-30.143L403.859,279.7ZM303.142,279.7l48.51,28.007L400.164,279.7,351.652,251.7Z" transform="translate(-148.361 12.115)"/><path class="b" d="M381.831,327.269,381.37,327l-51.747-29.876,52.206-30.142,52.208,30.143Zm-48.512-30.143,48.512,28.009,48.51-28.007-48.512-28.009Z" transform="translate(-128.179 23.767)"/><path class="b" d="M412.009,344.693,359.8,314.548l52.206-30.14.461.267,51.747,29.875ZM363.5,314.548l48.513,28.009,48.51-28.007-48.512-28.007Z" transform="translate(-107.996 35.42)"/><path class="b" d="M442.186,362.116l-.461-.269-51.747-29.875,52.206-30.142.462.267,51.747,29.875Zm-48.512-30.143,48.512,28.007L490.7,331.973l-48.513-28.007Z" transform="translate(-87.814 47.073)"/><path class="b" d="M261.122,292.421l-.461-.267L208.914,262.28l52.206-30.142.461.267,51.747,29.876ZM212.61,262.28l48.512,28.007,48.51-28.006L261.12,234.274Z" transform="translate(-208.907 0.463)"/><path class="b" d="M291.3,309.846,239.092,279.7,291.3,249.561l.461.267L343.506,279.7ZM242.787,279.7,291.3,307.712,339.81,279.7,291.3,251.7Z" transform="translate(-188.725 12.115)"/><path class="b" d="M321.479,327.269l-.462-.267-51.747-29.876,52.208-30.142,52.206,30.142Zm-48.513-30.143,48.513,28.009,48.508-28.009-48.51-28.007Z" transform="translate(-168.543 23.767)"/><path class="b" d="M351.653,344.692l-52.206-30.143,52.2-30.142.462.267,51.746,29.875Zm-48.51-30.143,48.51,28.009,48.512-28.009-48.513-28.007Z" transform="translate(-148.36 35.42)"/><path class="b" d="M381.832,362.115l-.461-.267-51.747-29.876L381.83,301.83l52.208,30.143ZM333.32,331.972l48.512,28.007,48.51-28.006L381.83,303.964Z" transform="translate(-128.178 47.072)"/><path class="b" d="M261.123,327.268l-.461-.267-51.747-29.876,52.206-30.142,52.208,30.143Zm-48.512-30.143,48.512,28.009,48.51-28.007-48.512-28.009Z" transform="translate(-208.907 23.767)"/><path class="b" d="M291.3,344.69l-.462-.267-51.746-29.876,52.206-30.14.461.267,51.747,29.875Zm-48.513-30.143L291.3,342.556l48.51-28.007L291.3,286.541Z" transform="translate(-188.724 35.42)"/><path class="b" d="M321.478,362.115,269.27,331.97l52.208-30.14,52.206,30.142ZM272.966,331.97l48.512,28.009,48.51-28.007-48.51-28.007Z" transform="translate(-168.542 47.072)"/><path class="b" d="M261.124,362.114l-.461-.267-51.747-29.876,52.206-30.142.461.267,51.747,29.875Zm-48.512-30.143,48.512,28.007,48.51-28.007-48.512-28.007Z" transform="translate(-208.906 47.071)"/></g><path class="b" d="M235.939,249.4a17.671,17.671,0,0,0-2.845,2.084c-.394-12.8-9.642-17.894-21.022-11.324-9.268,5.352-17.122,16.808-19.935,28.037a12.572,12.572,0,0,0-7.863,1.954c-8.3,4.789-15.022,16.439-15.022,26.018s6.725,13.462,15.022,8.673l51.666-29.83c6.124-3.536,11.091-12.137,11.091-19.209S242.064,245.868,235.939,249.4Z" transform="translate(0 131.899)"/><g transform="translate(627.006 428.917)"><path class="b" d="M453.3,292.949a10.764,10.764,0,0,1-4.871,8.436c-2.69,1.554-4.871.3-4.871-2.812a10.77,10.77,0,0,1,4.871-8.437C451.116,288.583,453.3,289.842,453.3,292.949Z" transform="translate(-443.555 -262.122)"/><path class="b" d="M462.758,287.486a10.765,10.765,0,0,1-4.871,8.437c-2.69,1.552-4.871.294-4.871-2.812a10.765,10.765,0,0,1,4.871-8.437C460.579,283.12,462.758,284.378,462.758,287.486Z" transform="translate(-437.228 -265.775)"/><path class="b" d="M472.22,282.023a10.767,10.767,0,0,1-4.871,8.437c-2.69,1.554-4.871.294-4.871-2.812a10.767,10.767,0,0,1,4.871-8.437C470.039,277.657,472.22,278.917,472.22,282.023Z" transform="translate(-430.9 -269.429)"/><path class="b" d="M481.682,276.56A10.767,10.767,0,0,1,476.811,285c-2.69,1.554-4.871.3-4.871-2.812a10.77,10.77,0,0,1,4.871-8.437C479.5,272.194,481.682,273.454,481.682,276.56Z" transform="translate(-424.571 -273.082)"/></g><g transform="translate(399.587 520.066)"><path class="b" d="M317.019,345.127a10.765,10.765,0,0,1-4.871,8.437c-2.69,1.554-4.871.3-4.871-2.812a10.77,10.77,0,0,1,4.871-8.437C314.838,340.761,317.019,342.021,317.019,345.127Z" transform="translate(-307.277 -318.375)"/><path class="b" d="M325.072,340.478a10.767,10.767,0,0,1-4.871,8.437c-2.69,1.554-4.871.294-4.871-2.812a10.768,10.768,0,0,1,4.871-8.437C322.891,336.112,325.072,337.372,325.072,340.478Z" transform="translate(-301.891 -321.484)"/><path class="b" d="M317.019,335.829a10.765,10.765,0,0,1-4.871,8.437c-2.69,1.554-4.871.3-4.871-2.812a10.77,10.77,0,0,1,4.871-8.437C314.838,331.463,317.019,332.723,317.019,335.829Z" transform="translate(-307.277 -324.593)"/><path class="b" d="M325.072,331.18a10.767,10.767,0,0,1-4.871,8.437c-2.69,1.554-4.871.294-4.871-2.812a10.768,10.768,0,0,1,4.871-8.437C322.891,326.814,325.072,328.074,325.072,331.18Z" transform="translate(-301.891 -327.702)"/></g><g transform="translate(334.43 108.793)"><path class="b" d="M277.975,97.238l-9.743,5.625V91.614l9.743-5.625Z" transform="translate(-268.232 -78.085)"/><path class="b" d="M286.078,92.5l-9.743,5.625V86.877l9.743-5.625Z" transform="translate(-262.813 -81.252)"/><path class="b" d="M278.025,105.984l-9.743,5.625V100.359l9.743-5.625Z" transform="translate(-268.198 -72.236)"/><path class="b" d="M286.078,101.335l-9.743,5.625V95.71l9.743-5.625Z" transform="translate(-262.813 -75.345)"/></g><path class="c" d="M559.095,46.41a18.644,18.644,0,0,0-4.758,4.089c-.224-9.382-6.955-13.132-15.248-8.344a27.707,27.707,0,0,0-7.328,6.393c-3.691-6.45-11.338-7.948-20.2-2.832C499.1,52.91,489,70.407,489,84.8a26.788,26.788,0,0,0,.227,3.363,8.511,8.511,0,0,0-6.318,1.275c-5.963,3.443-10.8,11.815-10.8,18.7s4.835,9.676,10.8,6.233l76.187-43.988c5.734-3.309,10.38-11.358,10.38-17.976S564.829,43.1,559.095,46.41Z" transform="translate(202.549)"/><path class="d" d="M567.231,53.577a18.658,18.658,0,0,0-4.759,4.09c-.224-9.382-6.955-13.132-15.246-8.344a27.708,27.708,0,0,0-7.329,6.393c-3.69-6.452-11.336-7.948-20.2-2.834-12.461,7.2-22.562,24.691-22.562,39.08a26.829,26.829,0,0,0,.225,3.364,8.5,8.5,0,0,0-6.318,1.275c-5.963,3.443-10.8,11.815-10.8,18.7s4.833,9.676,10.8,6.233l76.188-43.988c5.732-3.309,10.38-11.358,10.38-17.976S572.963,50.268,567.231,53.577Z" transform="translate(207.99 4.795)"/><path class="b" d="M575.368,60.747a18.624,18.624,0,0,0-4.759,4.09c-.224-9.384-6.956-13.132-15.248-8.346a27.738,27.738,0,0,0-7.328,6.395c-3.692-6.452-11.338-7.95-20.2-2.834-12.461,7.194-22.564,24.691-22.564,39.08a26.872,26.872,0,0,0,.227,3.364,8.5,8.5,0,0,0-6.318,1.275c-5.963,3.443-10.8,11.813-10.8,18.7s4.835,9.676,10.8,6.233l76.189-43.988c5.732-3.309,10.378-11.358,10.378-17.976S581.1,57.438,575.368,60.747Z" transform="translate(213.431 9.589)"/><path class="b" d="M276.314,279.592a2.356,2.356,0,0,1-2.356-2.356V247.052a2.355,2.355,0,0,1,1.178-2.041l26.14-15.091a2.356,2.356,0,0,1,3.535,2.039v30.185a2.358,2.358,0,0,1-1.178,2.041l-26.14,15.091A2.358,2.358,0,0,1,276.314,279.592Zm2.356-31.178v24.741L300.1,260.785V236.04Zm23.784,13.731h0Z" transform="translate(70.027 126.758)"/><g transform="translate(287.825 433.276)"><g transform="translate(0 0)"><path class="e" d="M279.721,365.294l-37.7-21.766,37.7-21.765,37.7,21.765Z" transform="translate(-239.157 -244.885)"/><path class="b" d="M280.87,359.515a2.86,2.86,0,0,1-1.432-.384l-37.7-21.766a2.866,2.866,0,0,1,0-4.965l37.7-21.764a2.86,2.86,0,0,1,2.864,0L320,332.4a2.864,2.864,0,0,1,0,4.965l-37.7,21.766A2.861,2.861,0,0,1,280.87,359.515ZM248.9,334.882l31.967,18.457,31.966-18.457-31.967-18.453Z" transform="translate(-240.305 -252.583)"/><path class="f" d="M302.311,332.265l-37.7,21.765V310.5l37.7-21.765Z" transform="translate(-224.048 -266.972)"/><path class="b" d="M279.721,319.224l-37.7-21.765,37.7-21.764,37.7,21.765Z" transform="translate(-239.156 -275.695)"/><path class="g" d="M279.721,354.03l-37.7-21.765V288.737l37.7,21.765Z" transform="translate(-239.156 -266.972)"/></g><path class="b" d="M260.7,321.09,250.159,315V302.828l10.544,6.087Z" transform="translate(-233.715 -257.548)"/></g><g transform="translate(709.93 198.818)"><path class="h" d="M532.663,224.8l-37.7-21.765,37.7-21.765,37.7,21.766Z" transform="translate(-492.097 -104.388)"/><path class="b" d="M533.813,219.017a2.872,2.872,0,0,1-1.434-.384l-37.7-21.764a2.866,2.866,0,0,1,0-4.965l37.7-21.764a2.863,2.863,0,0,1,2.865,0l37.7,21.764a2.866,2.866,0,0,1,0,4.965l-37.7,21.764A2.871,2.871,0,0,1,533.813,219.017Zm-31.967-24.631,31.967,18.455,31.964-18.455-31.966-18.453Z" transform="translate(-493.246 -112.087)"/><path class="f" d="M555.253,191.769l-37.7,21.765V170.005l37.7-21.765Z" transform="translate(-476.989 -126.476)"/><path class="b" d="M532.663,178.727l-37.7-21.765,37.7-21.764,37.7,21.765Z" transform="translate(-492.097 -135.198)"/><path class="g" d="M532.663,213.534l-37.7-21.765V148.24l37.7,21.765Z" transform="translate(-492.097 -126.476)"/><path class="b" d="M513.644,180.594,503.1,174.506V162.332l10.544,6.087Z" transform="translate(-486.656 -117.052)"/><path class="b" d="M511.237,150.806l10.47-6.213,10.616,5.961-10.47,6.213Z" transform="translate(-481.214 -128.915)"/></g><g transform="translate(709.93 433.276)"><g transform="translate(0 0)"><path class="e" d="M532.663,365.294l-37.7-21.766,37.7-21.765,37.7,21.765Z" transform="translate(-492.097 -244.885)"/><path class="b" d="M533.813,359.515a2.871,2.871,0,0,1-1.434-.384l-37.7-21.766a2.866,2.866,0,0,1,0-4.965l37.7-21.764a2.863,2.863,0,0,1,2.865,0l37.7,21.764a2.866,2.866,0,0,1,0,4.965l-37.7,21.766A2.87,2.87,0,0,1,533.813,359.515Zm-31.969-24.633,31.969,18.457,31.966-18.457-31.967-18.453Z" transform="translate(-493.246 -252.583)"/><path class="f" d="M555.252,332.265l-37.7,21.765V310.5l37.7-21.765Z" transform="translate(-476.989 -266.972)"/><path class="b" d="M532.662,319.224l-37.7-21.765,37.7-21.764,37.7,21.765Z" transform="translate(-492.097 -275.695)"/><path class="g" d="M532.662,354.03l-37.7-21.765V288.737l37.7,21.765Z" transform="translate(-492.097 -266.972)"/></g><path class="b" d="M513.644,321.09,503.1,315V302.828l10.544,6.087Z" transform="translate(-486.656 -257.548)"/></g><g transform="translate(287.825 198.818)"><path class="h" d="M279.721,224.8l-37.7-21.765,37.7-21.765,37.7,21.766Z" transform="translate(-239.157 -104.388)"/><path class="b" d="M280.87,219.017a2.861,2.861,0,0,1-1.432-.384l-37.7-21.764a2.866,2.866,0,0,1,0-4.965l37.7-21.764a2.86,2.86,0,0,1,2.864,0L320,191.9a2.864,2.864,0,0,1,0,4.965l-37.7,21.764A2.861,2.861,0,0,1,280.87,219.017ZM248.9,194.386l31.966,18.455,31.964-18.455-31.966-18.453Z" transform="translate(-240.305 -112.087)"/><path class="f" d="M302.311,191.769l-37.7,21.765V170.005l37.7-21.765Z" transform="translate(-224.048 -126.476)"/><path class="b" d="M279.721,178.727l-37.7-21.765,37.7-21.764,37.7,21.765Z" transform="translate(-239.156 -135.198)"/><path class="g" d="M279.721,213.534l-37.7-21.765V148.24l37.7,21.765Z" transform="translate(-239.156 -126.476)"/><path class="b" d="M260.7,180.594l-10.544-6.087V162.332l10.544,6.087Z" transform="translate(-233.715 -117.052)"/></g><rect class="b" width="126.591" height="5.731" transform="matrix(0.866, -0.5, 0.5, 0.866, 620.038, 314.631)"/><g transform="translate(426.914 50.676)"><path class="e" d="M425.457,349.6l-96.683-55.819c-3.543-2.046-3.1-5.619.993-7.98l102.474-59.317c4.092-2.363,10.281-2.618,13.824-.574l96.683,55.821c3.543,2.046,3.1,5.619-.993,7.98L439.282,349.026C435.19,351.388,429,351.645,425.457,349.6Z" transform="translate(-321.826 72.686)"/><path class="b" d="M432.623,341.449a15.137,15.137,0,0,1-7.449-1.752l-96.683-55.819a6.953,6.953,0,0,1-3.825-5.949c0-2.678,1.756-5.228,4.815-7l102.474-59.314c4.96-2.865,12.289-3.117,16.691-.576l96.683,55.821a6.945,6.945,0,0,1,3.825,5.948c0,2.68-1.754,5.23-4.816,7L441.865,339.121A18.884,18.884,0,0,1,432.623,341.449Zm-4.584-6.715c2.655,1.532,7.775,1.263,10.957-.574l102.472-59.315c1.434-.828,1.954-1.67,1.954-2.034,0-.215-.3-.6-.958-.985L445.78,216.007c-2.655-1.534-7.775-1.265-10.957.574L332.351,275.894c-1.434.828-1.954,1.671-1.954,2.034,0,.214.3.6.961.985Z" transform="translate(-322.974 62.496)"/><path class="g" d="M424.019,149.438s-53.081,5.056-85.05,7.513l84.794,241.5,112.161-64.691.053-.032.2-.115,0-.008c1.4-.884,2.291-2.814,2.291-5.537V92.022a17.106,17.106,0,0,0-1.947-7.535Z" transform="translate(-313.408 -20.971)"/><path class="g" d="M540.815,104.2,442.176,47.255a4.459,4.459,0,0,0-4.492-.387v0L325.072,111.834l5.305,19.635,28.236,80.416,5.315,3.067,181.89-105.013A13.9,13.9,0,0,0,540.815,104.2Z" transform="translate(-322.702 -46.426)"/><path class="g" d="M429.235,397.669,330.6,340.72c-3.837-2.215-6.946-8.155-6.946-13.27V91.406c0-5.113,3.109-7.464,6.946-5.25l98.637,56.949c3.837,2.214,6.945,8.155,6.945,13.27V392.417C436.18,397.532,433.071,399.883,429.235,397.669Z" transform="translate(-323.652 -20.412)"/><path class="b" d="M429.908,142.393,331.271,85.444c-2.221-1.282-4.194-1.026-5.464.4a5.136,5.136,0,0,1,3.349.784l98.637,56.949c3.837,2.214,6.946,8.155,6.946,13.27V392.891a7.207,7.207,0,0,1-1.482,4.85c2.144-.339,3.6-2.54,3.6-6.034V155.663C436.853,150.548,433.744,144.607,429.908,142.393Z" transform="translate(-322.211 -20.887)"/><path class="i" d="M420.193,378.563,333.965,328.78c-3.353-1.937-6.071-7.131-6.071-11.6V97.962c0-4.471,2.718-6.527,6.071-4.591l86.228,49.783c3.353,1.937,6.071,7.131,6.071,11.6V373.973C426.264,378.443,423.546,380.5,420.193,378.563Z" transform="translate(-320.815 -15.517)"/><path class="i" d="M420.193,378.563,333.965,328.78c-3.353-1.937-6.071-7.131-6.071-11.6V97.962c0-4.471,2.718-6.527,6.071-4.591l86.228,49.783c3.353,1.937,6.071,7.131,6.071,11.6V373.973C426.264,378.443,423.546,380.5,420.193,378.563Z" transform="translate(-320.815 -15.517)"/><path class="g" d="M420.193,378.563,333.965,328.78c-3.353-1.937-6.071-7.131-6.071-11.6V97.962c0-4.471,2.718-6.527,6.071-4.591l86.228,49.783c3.353,1.937,6.071,7.131,6.071,11.6V373.973C426.264,378.443,423.546,380.5,420.193,378.563Z" transform="translate(-320.815 -15.517)"/><path class="b" d="M423.01,376.905,336.782,327.12c-3.353-1.936-6.071-7.129-6.071-11.6V96.3a7.012,7.012,0,0,1,.871-3.66c-2.168-.017-3.688,1.974-3.688,5.317V317.178c0,4.471,2.718,9.664,6.071,11.6l86.228,49.783c2.209,1.275,4.139.809,5.2-.931A4.89,4.89,0,0,1,423.01,376.905Z" transform="translate(-320.815 -15.516)"/><g transform="translate(16.212 86.674)"><g transform="translate(0)"><path class="j" d="M416.533,211.082l-32.049-18.5-51.117,29.513L422.6,273.611V222.683C422.6,218.212,419.885,213.017,416.533,211.082Z" transform="translate(-333.367 -35.355)"/><path class="j" d="M416.533,184.164l-32.049-18.5-51.117,29.512,89.237,51.52V195.765C422.6,191.294,419.885,186.1,416.533,184.164Z" transform="translate(-333.367 -53.357)"/><path class="j" d="M416.533,157.246l-32.049-18.505-51.117,29.513L422.6,219.776V168.848C422.6,164.375,419.885,159.182,416.533,157.246Z" transform="translate(-333.367 -71.36)"/><path class="j" d="M416.533,130.327l-32.049-18.5-51.117,29.513L422.6,192.858V141.93C422.6,137.457,419.885,132.262,416.533,130.327Z" transform="translate(-333.367 -89.363)"/><path class="j" d="M416.533,139.328,345.579,98.364l-12.212,7.051L422.6,156.937v-6.006C422.6,146.458,419.885,141.264,416.533,139.328Z" transform="translate(-333.367 -98.364)"/></g><path class="f" d="M422.6,154.111l-89.238-51.522v28.392L422.6,182.5Z" transform="translate(-333.367 -95.538)"/><path class="f" d="M422.6,181.029l-89.238-51.522V157.9L422.6,209.421Z" transform="translate(-333.367 -77.536)"/><path class="f" d="M422.6,207.948l-89.238-51.522v28.392L422.6,236.339Z" transform="translate(-333.367 -59.533)"/><path class="f" d="M422.6,234.866l-89.238-51.522v28.392L422.6,263.258Z" transform="translate(-333.367 -41.53)"/><path class="f" d="M422.6,261.784l-89.238-51.522v28.392L422.6,290.176Z" transform="translate(-333.367 -23.528)"/></g><g transform="translate(26.929 107.535)"><path class="g" d="M410.439,166.851l-67.214-38.808a8.228,8.228,0,0,1-3.436-6.565v-7.6c0-2.53,1.539-3.693,3.436-2.6l67.214,38.806a8.232,8.232,0,0,1,3.436,6.567v7.6C413.875,166.783,412.336,167.946,410.439,166.851Z" transform="translate(-339.789 -110.865)"/><path class="j" d="M346.621,126.588a8.231,8.231,0,0,1-3.436-6.565v-7.6a4.865,4.865,0,0,1,.127-1.093l-.087-.05c-1.9-1.095-3.436.067-3.436,2.6v7.6a8.228,8.228,0,0,0,3.436,6.565l67.214,38.806c1.6.921,2.922.234,3.311-1.505Z" transform="translate(-339.789 -110.865)"/><path class="b" d="M386.18,142.634l-40.446-23.351a2.9,2.9,0,0,1-1.21-2.31h0c0-.889.542-1.3,1.21-.914l40.446,23.353a2.893,2.893,0,0,1,1.208,2.31h0C387.388,142.61,386.848,143.019,386.18,142.634Z" transform="translate(-336.622 -107.489)"/></g><g transform="translate(26.929 152.179)"><path class="g" d="M410.439,193.6,343.225,154.8a8.228,8.228,0,0,1-3.436-6.565v-7.6c0-2.53,1.539-3.693,3.436-2.6l67.214,38.806a8.232,8.232,0,0,1,3.436,6.567V191C413.875,193.535,412.336,194.7,410.439,193.6Z" transform="translate(-339.789 -137.617)"/><path class="j" d="M346.621,153.34a8.231,8.231,0,0,1-3.436-6.565v-7.6a4.865,4.865,0,0,1,.127-1.093l-.087-.05c-1.9-1.095-3.436.068-3.436,2.6v7.6a8.226,8.226,0,0,0,3.436,6.565L410.439,193.6c1.6.919,2.922.232,3.311-1.507Z" transform="translate(-339.789 -137.617)"/><path class="b" d="M386.18,169.386l-40.446-23.351a2.9,2.9,0,0,1-1.21-2.31h0c0-.889.542-1.3,1.21-.914l40.446,23.353a2.9,2.9,0,0,1,1.208,2.31h0C387.388,169.362,386.848,169.771,386.18,169.386Z" transform="translate(-336.622 -134.241)"/></g><g transform="translate(26.929 197.239)"><path class="g" d="M410.439,220.6,343.225,181.8a8.232,8.232,0,0,1-3.436-6.567v-7.6c0-2.53,1.539-3.693,3.436-2.6l67.214,38.806a8.228,8.228,0,0,1,3.436,6.565v7.6C413.875,220.537,412.336,221.7,410.439,220.6Z" transform="translate(-339.789 -164.619)"/><path class="j" d="M346.621,180.341a8.226,8.226,0,0,1-3.436-6.565v-7.6a4.865,4.865,0,0,1,.127-1.093l-.087-.048c-1.9-1.1-3.436.067-3.436,2.6v7.6a8.232,8.232,0,0,0,3.436,6.567L410.439,220.6c1.6.919,2.922.232,3.311-1.505Z" transform="translate(-339.789 -164.619)"/><path class="b" d="M386.18,196.388l-40.446-23.353a2.9,2.9,0,0,1-1.21-2.31h0c0-.889.542-1.3,1.21-.913l40.446,23.351a2.9,2.9,0,0,1,1.208,2.31h0C387.388,196.364,386.848,196.773,386.18,196.388Z" transform="translate(-336.622 -161.242)"/></g><g transform="translate(26.929 242.714)"><path class="g" d="M410.439,247.853l-67.214-38.806a8.228,8.228,0,0,1-3.436-6.565v-7.6c0-2.532,1.539-3.693,3.436-2.6l67.214,38.806a8.232,8.232,0,0,1,3.436,6.567v7.6C413.875,247.787,412.336,248.95,410.439,247.853Z" transform="translate(-339.789 -191.869)"/><path class="j" d="M346.621,207.592a8.231,8.231,0,0,1-3.436-6.565v-7.6a4.862,4.862,0,0,1,.127-1.091l-.087-.05c-1.9-1.095-3.436.067-3.436,2.6v7.6a8.228,8.228,0,0,0,3.436,6.565l67.214,38.806c1.6.921,2.922.234,3.311-1.505Z" transform="translate(-339.789 -191.869)"/><path class="b" d="M386.18,223.638l-40.446-23.351a2.9,2.9,0,0,1-1.21-2.31h0c0-.891.542-1.3,1.21-.915l40.446,23.353a2.893,2.893,0,0,1,1.208,2.31h0C387.388,223.614,386.848,224.023,386.18,223.638Z" transform="translate(-336.622 -188.493)"/></g><g transform="translate(26.929 287.288)"><path class="g" d="M410.439,274.565l-67.214-38.806a8.232,8.232,0,0,1-3.436-6.567v-7.6c0-2.53,1.539-3.693,3.436-2.6L410.439,257.8a8.229,8.229,0,0,1,3.436,6.565v7.6C413.875,274.5,412.336,275.661,410.439,274.565Z" transform="translate(-339.789 -218.58)"/><path class="j" d="M346.621,234.3a8.226,8.226,0,0,1-3.436-6.565v-7.6a4.865,4.865,0,0,1,.127-1.093l-.087-.048c-1.9-1.1-3.436.067-3.436,2.6v7.6a8.232,8.232,0,0,0,3.436,6.567l67.214,38.806c1.6.919,2.922.232,3.311-1.505Z" transform="translate(-339.789 -218.58)"/><path class="b" d="M386.18,250.349,345.734,227a2.9,2.9,0,0,1-1.21-2.31h0c0-.889.542-1.3,1.21-.913l40.446,23.351a2.9,2.9,0,0,1,1.208,2.31h0C387.388,250.325,386.848,250.734,386.18,250.349Z" transform="translate(-336.622 -215.203)"/></g><path class="b" d="M333.367,102.589l7.027,4.057v28.392l-7.027-4.057Z" transform="translate(-317.155 -8.865)"/><path class="b" d="M333.367,129.508l7.027,4.057v28.392l-7.027-4.057Z" transform="translate(-317.155 9.138)"/><path class="b" d="M333.367,156.426l7.027,4.057v28.392l-7.027-4.057Z" transform="translate(-317.155 27.141)"/><path class="b" d="M333.367,183.344l7.027,4.057v28.392l-7.027-4.057Z" transform="translate(-317.155 45.143)"/><path class="b" d="M333.367,210.262l7.027,4.057v28.392l-7.027-4.057Z" transform="translate(-317.155 63.146)"/><ellipse class="b" cx="1.162" cy="2.012" rx="1.162" ry="2.012" transform="matrix(0.866, -0.5, 0.5, 0.866, 81.021, 143.501)"/><path class="b" d="M379.016,136.757c0,.908-.637,1.275-1.423.823a3.144,3.144,0,0,1-1.422-2.465c0-.908.636-1.275,1.422-.821A3.145,3.145,0,0,1,379.016,136.757Z" transform="translate(-288.528 12.209)"/><path class="c" d="M382.63,138.844c0,.908-.636,1.275-1.422.821a3.142,3.142,0,0,1-1.423-2.463c0-.908.637-1.275,1.423-.821A3.141,3.141,0,0,1,382.63,138.844Z" transform="translate(-286.111 13.605)"/><path class="b" d="M375.4,161.576c0,.908-.637,1.275-1.422.821a3.145,3.145,0,0,1-1.423-2.463c0-.908.637-1.277,1.423-.823A3.148,3.148,0,0,1,375.4,161.576Z" transform="translate(-290.946 28.806)"/><path class="c" d="M379.016,163.663c0,.908-.637,1.275-1.423.821a3.144,3.144,0,0,1-1.422-2.465c0-.906.636-1.275,1.422-.821A3.146,3.146,0,0,1,379.016,163.663Z" transform="translate(-288.528 30.202)"/><path class="c" d="M382.63,165.75c0,.906-.636,1.275-1.422.821a3.145,3.145,0,0,1-1.423-2.465c0-.906.637-1.275,1.423-.821A3.144,3.144,0,0,1,382.63,165.75Z" transform="translate(-286.111 31.598)"/><path class="b" d="M375.4,188.684c0,.908-.637,1.275-1.422.821a3.145,3.145,0,0,1-1.423-2.465c0-.906.637-1.275,1.423-.821A3.148,3.148,0,0,1,375.4,188.684Z" transform="translate(-290.946 46.936)"/><path class="b" d="M379.016,190.771c0,.906-.637,1.275-1.423.821a3.144,3.144,0,0,1-1.422-2.465c0-.906.636-1.275,1.422-.821A3.145,3.145,0,0,1,379.016,190.771Z" transform="translate(-288.528 48.332)"/><path class="c" d="M382.63,192.858c0,.906-.636,1.275-1.422.821a3.145,3.145,0,0,1-1.423-2.465c0-.908.637-1.275,1.423-.821A3.144,3.144,0,0,1,382.63,192.858Z" transform="translate(-286.111 49.727)"/><path class="b" d="M375.4,215.4c0,.906-.637,1.275-1.422.821a3.145,3.145,0,0,1-1.423-2.465c0-.906.637-1.275,1.423-.821A3.148,3.148,0,0,1,375.4,215.4Z" transform="translate(-290.946 64.801)"/><path class="c" d="M379.016,217.484c0,.906-.637,1.275-1.423.821a3.144,3.144,0,0,1-1.422-2.465c0-.906.636-1.275,1.422-.821A3.146,3.146,0,0,1,379.016,217.484Z" transform="translate(-288.528 66.197)"/><path class="c" d="M382.63,219.571c0,.906-.636,1.275-1.422.821a3.145,3.145,0,0,1-1.423-2.465c0-.908.637-1.275,1.423-.821A3.144,3.144,0,0,1,382.63,219.571Z" transform="translate(-286.111 67.593)"/><path class="b" d="M375.4,242.473c0,.908-.637,1.275-1.422.821a3.142,3.142,0,0,1-1.423-2.463c0-.908.637-1.275,1.423-.823A3.148,3.148,0,0,1,375.4,242.473Z" transform="translate(-290.946 82.91)"/><path class="b" d="M379.016,244.56c0,.908-.637,1.275-1.423.821a3.143,3.143,0,0,1-1.422-2.463c0-.908.636-1.275,1.422-.823A3.145,3.145,0,0,1,379.016,244.56Z" transform="translate(-288.528 84.306)"/><path class="b" d="M382.63,246.648c0,.908-.636,1.275-1.422.821A3.145,3.145,0,0,1,379.785,245c0-.906.637-1.275,1.423-.821A3.144,3.144,0,0,1,382.63,246.648Z" transform="translate(-286.111 85.702)"/><g transform="translate(127.385 95.62)"><path class="b" d="M399.986,353.456V152.462l.416-.239,84-48.5V304.717l-.416.239Zm1.664-200.033V350.572l81.088-46.816V106.607Z" transform="translate(-399.986 -103.725)"/></g><g transform="translate(147.734 152.403)"><path class="f" d="M454.425,171.4l-37.665,21.746c-2.53,1.46-4.581-.09-4.581-3.464V168.8c0-3.373,2.051-7.291,4.581-8.753L454.425,138.3c2.532-1.46,4.582.09,4.582,3.464v20.883C459.008,166.021,456.957,169.94,454.425,171.4Z" transform="translate(-412.18 -137.752)"/><path class="j" d="M455.2,137.9a6.05,6.05,0,0,1,.34,2.094v20.883c0,3.373-2.051,7.293-4.582,8.753L413.3,191.373a4.395,4.395,0,0,1-.913.4c.679,1.844,2.32,2.48,4.24,1.37L454.289,171.4c2.532-1.462,4.581-5.38,4.581-8.753V141.765C458.87,138.808,457.3,137.253,455.2,137.9Z" transform="translate(-412.044 -137.751)"/><g transform="translate(7.091 11.458)"><g transform="translate(0 9.442)"><path class="b" d="M433.879,150.448c.7-.4,1.26-.075,1.26.729v4.756a2.788,2.788,0,0,1-1.26,2.184c-.7.4-1.262.075-1.262-.729v-4.756A2.79,2.79,0,0,1,433.879,150.448Z" transform="translate(-405.603 -150.276)"/><path class="b" d="M430.64,152.674c.7-.4,1.262-.077,1.262.728v4.162a2.79,2.79,0,0,1-1.262,2.184c-.7.4-1.26.077-1.26-.728v-4.162A2.788,2.788,0,0,1,430.64,152.674Z" transform="translate(-407.767 -148.787)"/><path class="b" d="M427.4,151.76c.7-.4,1.262-.075,1.262.729V161.3a2.782,2.782,0,0,1-1.262,2.183c-.7.4-1.26.077-1.26-.728v-8.806A2.788,2.788,0,0,1,427.4,151.76Z" transform="translate(-409.933 -149.398)"/><path class="c" d="M424.166,150.589c.7-.4,1.26-.077,1.26.728V165.2a2.788,2.788,0,0,1-1.26,2.184c-.7.4-1.262.075-1.262-.729V152.772A2.785,2.785,0,0,1,424.166,150.589Z" transform="translate(-412.099 -150.182)"/><path class="b" d="M420.928,153.33c.7-.4,1.26-.075,1.26.729v12.424a2.788,2.788,0,0,1-1.26,2.184c-.7.4-1.262.077-1.262-.728V155.514A2.785,2.785,0,0,1,420.928,153.33Z" transform="translate(-414.264 -148.348)"/><path class="b" d="M417.689,158.6c.7-.4,1.262-.077,1.262.728v6.749a2.782,2.782,0,0,1-1.262,2.183c-.7.4-1.26.077-1.26-.728v-6.749A2.785,2.785,0,0,1,417.689,158.6Z" transform="translate(-416.429 -144.823)"/></g><path class="b" d="M432.63,149.867c0,.791.556,1.111,1.24.716a2.742,2.742,0,0,0,1.24-2.148c0-.789-.556-1.11-1.24-.716A2.745,2.745,0,0,0,432.63,149.867Z" transform="translate(-405.594 -142.656)"/><ellipse class="b" cx="1.753" cy="1.012" rx="1.753" ry="1.012" transform="matrix(0.5, -0.866, 0.866, 0.5, 26.522, 3.037)"/></g></g></g><rect class="b" width="5.733" height="111.198" transform="translate(747.629 109.385)"/><g transform="translate(469.786 440.983)"><path class="e" d="M411.284,390.746,353.69,357.5c-3.534-2.041-3.092-5.606.99-7.962l55.611-32.107c4.082-2.356,10.256-2.612,13.791-.572l57.593,33.252c3.535,2.041,3.092,5.605-.99,7.962l-55.611,32.108C420.993,392.532,414.818,392.787,411.284,390.746Z" transform="translate(-348.032 -256.795)"/><path class="b" d="M418.614,385.824a15.489,15.489,0,0,1-7.655-1.831h0l-57.592-33.252a7.337,7.337,0,0,1-4.023-6.291c0-2.824,1.827-5.5,5.011-7.336l55.612-32.106c5.145-2.974,12.478-3.221,17.06-.572l57.6,33.252a7.328,7.328,0,0,1,4.02,6.288c0,2.824-1.827,5.5-5.013,7.338l-55.609,32.107A19.158,19.158,0,0,1,418.614,385.824Zm-4.386-7.5c2.543,1.465,7.454,1.2,10.52-.572l55.611-32.108c1.4-.806,1.734-1.537,1.742-1.674a2.114,2.114,0,0,0-.749-.622l-57.6-33.252c-2.537-1.465-7.451-1.2-10.518.572l-55.611,32.106c-1.4.808-1.732,1.537-1.741,1.674a2.067,2.067,0,0,0,.751.624l57.593,33.252Z" transform="translate(-349.343 -265.405)"/><path class="g" d="M484.039,327.276h0V307.4l-44.558-.025-15.4-8.893c-3.535-2.041-9.709-1.784-13.791.572l-14.368,8.3-44.6-.025v20.438c-.1,1.382.669,2.715,2.368,3.695l57.593,33.252c3.535,2.041,9.709,1.784,13.791-.572l55.611-32.108C483.036,330.675,484.171,328.915,484.039,327.276Z" transform="translate(-348.028 -269.08)"/><path class="g" d="M417.679,297.115a15.892,15.892,0,0,0-7.393,1.939l-14.368,8.3-44.6-.025v20.438c-.1,1.382.669,2.715,2.368,3.695l57.593,33.252a12.49,12.49,0,0,0,6.4,1.367Z" transform="translate(-348.028 -269.075)"/><path class="g" d="M356.367,303.236l-5.048,0v20.438c-.1,1.382.669,2.715,2.368,3.695l2.68,1.547Z" transform="translate(-348.028 -264.984)"/><path class="g" d="M387.778,347.23a15.711,15.711,0,0,0,11.022-.125V323.9H387.778Z" transform="translate(-323.638 -251.163)"/><path class="b" d="M411.284,355.582,353.69,322.332c-3.534-2.041-3.092-5.605.99-7.964l55.611-32.106c4.082-2.356,10.256-2.613,13.791-.572l57.593,33.252c3.535,2.041,3.092,5.605-.99,7.962L425.075,355.01C420.993,357.368,414.818,357.623,411.284,355.582Z" transform="translate(-348.032 -280.313)"/><path class="b" d="M480.685,304.488l-55.611,32.107c-4.082,2.356-10.256,2.613-13.791.572L353.69,303.915a5.334,5.334,0,0,1-1.764-1.565c-1.215,1.954-.663,4.075,1.764,5.475l57.593,33.252c3.535,2.041,9.709,1.786,13.791-.572L480.685,308.4c3.171-1.831,4.135-4.389,2.753-6.4A7.7,7.7,0,0,1,480.685,304.488Z" transform="translate(-348.031 -265.808)"/><g transform="translate(110.175 53.137)"><path class="k" d="M420.017,318.994a5.144,5.144,0,0,1-2.326,4.03c-1.285.741-2.326.14-2.326-1.343a5.144,5.144,0,0,1,2.326-4.03C418.975,316.909,420.017,317.51,420.017,318.994Z" transform="translate(-415.364 -308.691)"/><path class="k" d="M424.5,316.4a5.139,5.139,0,0,1-2.326,4.028c-1.285.743-2.326.14-2.326-1.343a5.141,5.141,0,0,1,2.326-4.028C423.46,314.32,424.5,314.921,424.5,316.4Z" transform="translate(-412.365 -310.422)"/><path class="k" d="M428.987,313.814a5.144,5.144,0,0,1-2.326,4.03c-1.285.741-2.326.14-2.326-1.343a5.139,5.139,0,0,1,2.326-4.029C427.945,311.73,428.987,312.331,428.987,313.814Z" transform="translate(-409.365 -312.154)"/></g><g transform="translate(38.59 19.432)"><path class="g" d="M400.535,327.18l-26.951-15.561c-1.654-.955-1.447-2.622.462-3.725L400.07,292.87a7.177,7.177,0,0,1,6.455-.269l26.949,15.56c1.655.956,1.447,2.623-.462,3.726l-26.023,15.024A7.173,7.173,0,0,1,400.535,327.18Z" transform="translate(-372.468 -291.957)"/><path class="k" d="M392.39,307.21l-3.73-2.154c-.229-.132-.2-.362.065-.514l3.6-2.079a.991.991,0,0,1,.893-.037l3.73,2.153c.229.132.2.362-.065.516l-3.6,2.078A.991.991,0,0,1,392.39,307.21Z" transform="translate(-361.742 -285.015)"/><path class="f" d="M373.585,311.619l.075.045c.127-.09.242-.182.387-.267l26.023-15.024a7.171,7.171,0,0,1,6.455-.267L433.4,311.62c1.524-1.091,1.6-2.577.075-3.459L406.525,292.6a7.177,7.177,0,0,0-6.455.269l-26.023,15.024C372.138,309,371.931,310.664,373.585,311.619Z" transform="translate(-372.468 -291.957)"/></g></g><g transform="translate(680.846 294.267)"><path class="e" d="M537.758,302.83l-57.593-33.252c-3.534-2.041-3.092-5.605.99-7.962l55.611-32.107c4.082-2.356,10.256-2.612,13.791-.571l57.593,33.251c3.534,2.041,3.092,5.606-.99,7.962l-55.611,32.108C547.467,304.614,541.292,304.871,537.758,302.83Z" transform="translate(-474.507 -168.878)"/><path class="b" d="M545.088,297.906a15.481,15.481,0,0,1-7.655-1.831h0l-57.593-33.252a7.333,7.333,0,0,1-4.02-6.29c0-2.824,1.827-5.5,5.013-7.336L536.44,217.09c5.148-2.974,12.482-3.219,17.062-.572L611.1,249.77a7.329,7.329,0,0,1,4.02,6.29c0,2.824-1.827,5.5-5.013,7.338L554.5,295.5A19.175,19.175,0,0,1,545.088,297.906Zm-4.386-7.5c2.542,1.464,7.455,1.2,10.523-.572l55.607-32.106c1.4-.808,1.734-1.537,1.742-1.674a2.1,2.1,0,0,0-.749-.624l-57.595-33.252c-2.538-1.464-7.453-1.2-10.518.572L484.1,254.861c-1.4.808-1.734,1.537-1.742,1.674a2.094,2.094,0,0,0,.749.622L540.7,290.41Z" transform="translate(-475.818 -177.488)"/><path class="g" d="M610.513,239.358h0V219.486l-44.558-.025-15.4-8.893c-3.534-2.039-9.709-1.784-13.791.572l-14.37,8.3-44.6-.025V239.85c-.1,1.38.669,2.713,2.368,3.693L537.754,276.8c3.535,2.041,9.709,1.784,13.791-.572l55.611-32.106C609.51,242.757,610.645,241,610.513,239.358Z" transform="translate(-474.503 -181.162)"/><path class="g" d="M544.154,209.2a15.911,15.911,0,0,0-7.393,1.939l-14.37,8.3-44.6-.025v20.438c-.1,1.38.669,2.713,2.368,3.693l57.593,33.252a12.473,12.473,0,0,0,6.4,1.367Z" transform="translate(-474.503 -181.158)"/><path class="g" d="M482.841,215.318l-5.048,0v20.438c-.1,1.38.669,2.713,2.368,3.693l2.68,1.547Z" transform="translate(-474.503 -177.066)"/><path class="g" d="M514.252,259.312a15.711,15.711,0,0,0,11.022-.125v-23.2H514.252Z" transform="translate(-450.114 -163.245)"/><path class="b" d="M537.758,267.664l-57.593-33.251c-3.534-2.041-3.092-5.605.99-7.962l55.611-32.107c4.082-2.356,10.256-2.612,13.791-.571l57.593,33.251c3.534,2.041,3.092,5.605-.99,7.962l-55.611,32.107C547.467,269.45,541.292,269.7,537.758,267.664Z" transform="translate(-474.507 -192.395)"/><path class="b" d="M607.159,216.57l-55.611,32.106c-4.082,2.356-10.256,2.613-13.791.572L480.164,216a5.33,5.33,0,0,1-1.764-1.564c-1.215,1.954-.664,4.073,1.764,5.475l57.593,33.251c3.535,2.041,9.709,1.786,13.791-.571l55.611-32.107c3.171-1.831,4.135-4.389,2.754-6.4A7.726,7.726,0,0,1,607.159,216.57Z" transform="translate(-474.507 -177.89)"/><g transform="translate(110.173 53.137)"><path class="k" d="M546.49,231.075a5.144,5.144,0,0,1-2.326,4.03c-1.285.741-2.326.14-2.326-1.343a5.139,5.139,0,0,1,2.326-4.028C545.449,228.991,546.49,229.593,546.49,231.075Z" transform="translate(-541.838 -220.774)"/><path class="k" d="M550.976,228.487a5.138,5.138,0,0,1-2.326,4.028c-1.285.743-2.326.142-2.326-1.342a5.144,5.144,0,0,1,2.326-4.03C549.934,226.4,550.976,227,550.976,228.487Z" transform="translate(-538.839 -222.505)"/><path class="k" d="M555.461,225.9a5.139,5.139,0,0,1-2.326,4.028c-1.285.743-2.326.14-2.326-1.343a5.139,5.139,0,0,1,2.326-4.028C554.419,223.813,555.461,224.414,555.461,225.9Z" transform="translate(-535.839 -224.237)"/></g><g transform="translate(38.589 19.431)"><path class="g" d="M527.009,239.262,500.059,223.7c-1.654-.956-1.447-2.623.462-3.726l26.023-15.024a7.171,7.171,0,0,1,6.455-.267l26.949,15.56c1.655.955,1.447,2.623-.462,3.725l-26.023,15.026A7.178,7.178,0,0,1,527.009,239.262Z" transform="translate(-498.942 -204.039)"/><path class="k" d="M518.864,219.292l-3.73-2.153c-.229-.132-.2-.364.065-.516l3.6-2.079a1,1,0,0,1,.893-.037l3.73,2.153c.229.132.2.364-.065.516l-3.6,2.079A1,1,0,0,1,518.864,219.292Z" transform="translate(-488.216 -197.097)"/><path class="f" d="M500.059,223.7l.075.043a4.625,4.625,0,0,1,.387-.265l26.023-15.026a7.181,7.181,0,0,1,6.455-.267L559.873,223.7c1.524-1.091,1.6-2.578.075-3.459L533,204.685a7.171,7.171,0,0,0-6.455.267l-26.023,15.024C498.612,221.079,498.4,222.746,500.059,223.7Z" transform="translate(-498.942 -204.039)"/></g></g><g transform="translate(258.74 294.267)"><path class="e" d="M284.816,302.83l-57.593-33.252c-3.535-2.041-3.092-5.605.99-7.962l55.611-32.107c4.082-2.356,10.256-2.612,13.791-.571l57.593,33.251c3.534,2.041,3.091,5.606-.99,7.962l-55.611,32.108C294.525,304.614,288.35,304.871,284.816,302.83Z" transform="translate(-221.565 -168.878)"/><path class="b" d="M292.146,297.906a15.478,15.478,0,0,1-7.653-1.831h0L226.9,262.823a7.333,7.333,0,0,1-4.02-6.29c0-2.824,1.826-5.5,5.013-7.336L283.5,217.09c5.148-2.974,12.481-3.219,17.06-.572l57.595,33.252a7.334,7.334,0,0,1,4.022,6.29c0,2.824-1.826,5.5-5.011,7.338L301.553,295.5A19.159,19.159,0,0,1,292.146,297.906Zm-4.384-7.5c2.538,1.464,7.449,1.2,10.52-.572l55.611-32.106c1.4-.806,1.732-1.537,1.741-1.674a2.1,2.1,0,0,0-.751-.624l-57.593-33.252c-2.538-1.464-7.453-1.2-10.518.572L231.16,254.861c-1.4.808-1.734,1.537-1.742,1.674a2.075,2.075,0,0,0,.749.622l57.6,33.252Z" transform="translate(-222.876 -177.488)"/><path class="g" d="M357.571,239.358h0V219.486l-44.56-.025-15.4-8.893c-3.534-2.039-9.709-1.784-13.791.572l-14.37,8.3-44.6-.025V239.85c-.1,1.38.669,2.713,2.368,3.693L284.812,276.8c3.534,2.041,9.709,1.784,13.791-.572l55.611-32.106C356.568,242.757,357.7,241,357.571,239.358Z" transform="translate(-221.561 -181.162)"/><path class="g" d="M291.211,209.2a15.911,15.911,0,0,0-7.393,1.939l-14.37,8.3-44.6-.025v20.438c-.1,1.38.669,2.713,2.368,3.693l57.593,33.252a12.472,12.472,0,0,0,6.4,1.367Z" transform="translate(-221.561 -181.158)"/><path class="g" d="M229.9,215.318l-5.046,0v20.438c-.1,1.38.669,2.713,2.368,3.693l2.678,1.547Z" transform="translate(-221.561 -177.066)"/><path class="g" d="M261.31,259.312a15.711,15.711,0,0,0,11.022-.125v-23.2H261.31Z" transform="translate(-197.172 -163.245)"/><path class="b" d="M284.816,267.664l-57.593-33.251c-3.535-2.041-3.092-5.605.99-7.962l55.611-32.107c4.082-2.356,10.256-2.612,13.791-.571l57.593,33.251c3.534,2.041,3.091,5.605-.99,7.962l-55.611,32.107C294.525,269.45,288.35,269.7,284.816,267.664Z" transform="translate(-221.565 -192.395)"/><path class="b" d="M354.217,216.57,298.6,248.676c-4.08,2.356-10.255,2.613-13.789.572L227.222,216a5.314,5.314,0,0,1-1.764-1.564c-1.215,1.954-.664,4.073,1.764,5.475l57.593,33.251c3.534,2.041,9.709,1.786,13.789-.571l55.612-32.107c3.171-1.831,4.134-4.389,2.753-6.4A7.726,7.726,0,0,1,354.217,216.57Z" transform="translate(-221.565 -177.89)"/><g transform="translate(110.173 53.137)"><path class="k" d="M293.549,231.075a5.144,5.144,0,0,1-2.326,4.03c-1.285.741-2.326.14-2.326-1.343a5.138,5.138,0,0,1,2.326-4.028C292.507,228.991,293.549,229.593,293.549,231.075Z" transform="translate(-288.896 -220.774)"/><path class="k" d="M298.034,228.487a5.139,5.139,0,0,1-2.326,4.028c-1.285.743-2.326.142-2.326-1.342a5.144,5.144,0,0,1,2.326-4.03C296.992,226.4,298.034,227,298.034,228.487Z" transform="translate(-285.896 -222.505)"/><path class="k" d="M302.519,225.9a5.139,5.139,0,0,1-2.326,4.028c-1.285.743-2.326.14-2.326-1.343a5.139,5.139,0,0,1,2.326-4.028C301.477,223.813,302.519,224.414,302.519,225.9Z" transform="translate(-282.897 -224.237)"/></g><g transform="translate(38.588 19.431)"><path class="g" d="M274.066,239.262,247.117,223.7c-1.655-.956-1.447-2.623.462-3.726L273.6,204.952a7.167,7.167,0,0,1,6.453-.267l26.951,15.56c1.654.955,1.447,2.623-.462,3.725l-26.025,15.026A7.177,7.177,0,0,1,274.066,239.262Z" transform="translate(-245.999 -204.039)"/><path class="k" d="M265.922,219.292l-3.73-2.153c-.229-.132-.2-.364.065-.516l3.6-2.079a1,1,0,0,1,.893-.037l3.73,2.153c.229.132.2.364-.065.516l-3.6,2.079A1,1,0,0,1,265.922,219.292Z" transform="translate(-235.273 -197.097)"/><path class="f" d="M247.117,223.7l.075.043a4.378,4.378,0,0,1,.387-.265L273.6,208.454a7.178,7.178,0,0,1,6.453-.267L306.93,223.7c1.525-1.091,1.605-2.578.077-3.459l-26.951-15.56a7.167,7.167,0,0,0-6.453.267l-26.023,15.024C245.67,221.079,245.461,222.746,247.117,223.7Z" transform="translate(-245.999 -204.039)"/></g></g></g></svg>