<svg xmlns="http://www.w3.org/2000/svg" width="281.59" height="44.115" viewBox="0 0 281.59 44.115"><defs><style>.a{fill:#ea4335;}.b{fill:#4285f4;}.c{fill:#42a853;}.d{fill:#f8bb07;}.e{fill:#fff;}</style></defs><g transform="translate(-207 -406.89)"><path class="a" d="M237.85,418.462h.166l-.1-.083,6.272-6.272.012-.113a20.39,20.39,0,0,0-33.174,9.948,2.638,2.638,0,0,1,.336-.11,14.626,14.626,0,0,1,10.9-2.162.207.207,0,0,1,.133-.034,11.312,11.312,0,0,1,15.489-1.175Z" transform="translate(2.272 0)"/><path class="b" d="M243.358,420.1a20.5,20.5,0,0,0-6.161-9.932l-6.369,6.369a11.319,11.319,0,0,1,4.155,8.98v1.126c7.554,0,7.554,11.336,0,11.336H223.648l-.017.017v9h-.049l.066.066h11.336a14.744,14.744,0,0,0,8.374-26.956Z" transform="translate(9.359 1.847)"/><path class="c" d="M219.579,437.157h11.332v-9.07H219.579a5.561,5.561,0,0,1-2.328-.508L210.7,434.13l-.017.069a14.665,14.665,0,0,0,8.9,2.958Z" transform="translate(2.077 11.676)"/><path class="d" d="M221.657,414.885a14.74,14.74,0,0,0-8.9,26.426l6.577-6.575a5.666,5.666,0,1,1,7.5-7.5l6.575-6.574a14.732,14.732,0,0,0-11.749-5.78Z" transform="translate(0 4.512)"/><path class="e" d="M265.043,440.284a14.54,14.54,0,0,1-10.513-4.311,14.437,14.437,0,0,1,0-20.764,14.5,14.5,0,0,1,10.513-4.393,14.049,14.049,0,0,1,10.075,4.063l-2.836,2.879a10.188,10.188,0,0,0-7.238-2.861,10.056,10.056,0,0,0-7.489,3.184,10.733,10.733,0,0,0,0,15.023,10.679,10.679,0,0,0,14.9.175,8.448,8.448,0,0,0,2.181-4.95h-9.552v-4.08h13.524a13.384,13.384,0,0,1,.16,2.487,12.778,12.778,0,0,1-3.492,9.4,13.541,13.541,0,0,1-10.233,4.153Zm31.424-2.7a9.745,9.745,0,0,1-13.48,0,9.668,9.668,0,0,1,0-13.53,9.751,9.751,0,0,1,13.48,0,9.668,9.668,0,0,1-.016,13.53Zm-10.5-2.661a5.163,5.163,0,0,0,7.529,0,6.119,6.119,0,0,0,0-8.232,5.241,5.241,0,0,0-7.561,0,6.093,6.093,0,0,0,.016,8.232Zm31.236,2.661a9.759,9.759,0,0,1-13.491,0,9.692,9.692,0,0,1,0-13.53,9.747,9.747,0,0,1,13.491,0,9.688,9.688,0,0,1,0,13.53Zm-10.514-2.661a5.172,5.172,0,0,0,7.537,0,6.115,6.115,0,0,0,0-8.232,5.245,5.245,0,0,0-7.564,0,6.1,6.1,0,0,0,.009,8.232Zm24.137,13.865a8.3,8.3,0,0,1-5.3-1.683,9.811,9.811,0,0,1-3.093-3.922l3.633-1.51a6.078,6.078,0,0,0,1.8,2.37,4.488,4.488,0,0,0,2.975,1,4.775,4.775,0,0,0,3.706-1.435,5.8,5.8,0,0,0,1.327-4.136V438.1h-.149a6.057,6.057,0,0,1-4.976,2.149,8.624,8.624,0,0,1-6.367-2.771,9.582,9.582,0,0,1,0-13.39,8.653,8.653,0,0,1,6.367-2.788,6.917,6.917,0,0,1,2.929.655,5.909,5.909,0,0,1,2.063,1.51h.15v-1.51h3.945v16.956a9.9,9.9,0,0,1-2.528,7.406,8.926,8.926,0,0,1-6.484,2.462Zm.291-12.223a4.657,4.657,0,0,0,3.6-1.593,5.887,5.887,0,0,0,1.444-4.08,6.038,6.038,0,0,0-1.444-4.153,4.6,4.6,0,0,0-3.6-1.591,4.926,4.926,0,0,0-3.731,1.591,5.8,5.8,0,0,0-1.593,4.121,5.725,5.725,0,0,0,1.593,4.078,4.953,4.953,0,0,0,3.731,1.627Zm15.746,3.151H342.7V411.884h4.161v27.827Zm11.392.573a9.044,9.044,0,0,1-6.7-2.719,10.017,10.017,0,0,1-.1-13.566,8.566,8.566,0,0,1,6.367-2.661,8.073,8.073,0,0,1,3.185.621,7.391,7.391,0,0,1,2.436,1.593,10.228,10.228,0,0,1,2.531,3.789l.43,1.086-12.736,5.233a4.773,4.773,0,0,0,4.584,2.867,5.454,5.454,0,0,0,4.668-2.627l3.185,2.148a10.659,10.659,0,0,1-3.058,2.9,8.648,8.648,0,0,1-4.795,1.336Zm-5.314-9.76,8.465-3.515a2.9,2.9,0,0,0-1.317-1.452A4.29,4.29,0,0,0,357.9,425a4.893,4.893,0,0,0-3.424,1.51,5.046,5.046,0,0,0-1.542,4.011Z" transform="translate(24.339 2.215)"/><path class="e" d="M343.179,439.337a13.421,13.421,0,1,1,0-26.84,11.882,11.882,0,0,1,9.444,4.205l-2.3,2.221a8.673,8.673,0,0,0-7.132-3.26,9.734,9.734,0,0,0-7.088,2.836,11,11,0,0,0,0,14.835,9.732,9.732,0,0,0,7.088,2.835,10.124,10.124,0,0,0,7.96-3.722l2.29,2.287a12.422,12.422,0,0,1-4.405,3.359,13.507,13.507,0,0,1-5.86,1.244Z" transform="translate(69.327 3.161)"/><path class="e" d="M346.76,438.562h3.292V412.85H346.76v25.712Z" transform="translate(78.879 3.364)"/><path class="e" d="M353.225,420.361a9.321,9.321,0,1,1,0,13.368,10.048,10.048,0,0,1,0-13.368Zm2.453,11.3a5.558,5.558,0,0,0,8.069,0,7.094,7.094,0,0,0,0-9.235,5.558,5.558,0,0,0-8.069,0,7.082,7.082,0,0,0,.017,9.22l-.017.014Z" transform="translate(81.089 6.091)"/><path class="e" d="M379.536,435.628h-3.184V433.19h-.1a6.122,6.122,0,0,1-2.323,2.2,6.549,6.549,0,0,1-3.266.878,6.222,6.222,0,0,1-5-2.006,7.974,7.974,0,0,1-1.7-5.381V418.05h3.292v10.222q0,4.914,4.346,4.918a4.064,4.064,0,0,0,3.349-1.593,6.027,6.027,0,0,0,1.284-3.806V418.05h3.3v17.578Z" transform="translate(88.582 6.299)"/><path class="e" d="M384.079,439.135a7.72,7.72,0,0,1-5.885-2.7,10.237,10.237,0,0,1,0-13.341,7.745,7.745,0,0,1,5.885-2.688,7.452,7.452,0,0,1,3.6.865,6.015,6.015,0,0,1,2.387,2.146h.141l-.141-2.437V412.85h3.3v25.712h-3.184v-2.437h-.149a6.026,6.026,0,0,1-2.389,2.148,7.418,7.418,0,0,1-3.567.862Zm.548-3.01a5.269,5.269,0,0,0,3.964-1.718,7.54,7.54,0,0,0,0-9.269,5.382,5.382,0,0,0-7.96,0,7.494,7.494,0,0,0,0,9.238,5.234,5.234,0,0,0,4,1.749Z" transform="translate(95.223 3.364)"/></g></svg>