<svg xmlns="http://www.w3.org/2000/svg" xmlns:xlink="http://www.w3.org/1999/xlink" width="79" height="79" viewBox="0 0 79 79"><defs><style>.a{fill:#fff;}.b{fill:#151515;}.c{clip-path:url(#a);}</style><clipPath id="a"><rect class="a" width="34" height="34" transform="translate(4757 1383)"/></clipPath></defs><g transform="translate(-4734 -1360)"><circle class="b" cx="39.5" cy="39.5" r="39.5" transform="translate(4734 1360)"/><g class="c"><path class="a" d="M10.63,29.034a2.149,2.149,0,0,1,.764.747,2.1,2.1,0,0,1,.3,1.046,2.06,2.06,0,0,1-.166.83,2.131,2.131,0,0,1-.448.664,2.317,2.317,0,0,1-.681.465,1.8,1.8,0,0,1-.83.166,2.06,2.06,0,0,1-.83-.166,2.131,2.131,0,0,1-.664-.448,2.317,2.317,0,0,1-.465-.681,1.8,1.8,0,0,1-.166-.83,1.946,1.946,0,0,1,.282-1.03,2.245,2.245,0,0,1,.781-.764v-1.4A8.276,8.276,0,0,1,5.2,26.974a8.393,8.393,0,0,1-2.691-1.827A8.976,8.976,0,0,1,.681,22.44,8.1,8.1,0,0,1,0,19.134a8.276,8.276,0,0,1,.664-3.305,8.393,8.393,0,0,1,1.827-2.691A8.976,8.976,0,0,1,5.2,11.311,8.1,8.1,0,0,1,8.5,10.63a8.2,8.2,0,0,1,1.545.149,9.786,9.786,0,0,1,1.545-1.827A9.62,9.62,0,0,1,13.5,7.574a9.977,9.977,0,0,1,2.192-.88,9.027,9.027,0,0,1,2.375-.316,9.889,9.889,0,0,1,1.462.1,6.966,6.966,0,0,1,1.279.316q.615.216,1.246.482t1.329.615v9.119H10.63ZM8.5,17.008a2.06,2.06,0,0,1,.166-.83,2.131,2.131,0,0,1,.448-.664,2.317,2.317,0,0,1,.681-.465,1.8,1.8,0,0,1,.83-.166H21.26V9.235a7.347,7.347,0,0,0-5.431-.382,7.324,7.324,0,0,0-1.977.98,7.994,7.994,0,0,0-1.611,1.511,6.748,6.748,0,0,0-1.113,1.993,6.3,6.3,0,0,0-5.1-.083A6.658,6.658,0,0,0,4,14.617,6.219,6.219,0,0,0,2.624,16.66a6.294,6.294,0,0,0-.5,2.475,6.139,6.139,0,0,0,.5,2.475,6.658,6.658,0,0,0,1.362,2.026A6.281,6.281,0,0,0,8.5,25.512Zm19.134-2.126a6.216,6.216,0,0,1,2.475.5,6.3,6.3,0,0,1,3.388,3.4A6.294,6.294,0,0,1,34,21.26a6.139,6.139,0,0,1-.5,2.475,6.658,6.658,0,0,1-1.362,2.026,6.281,6.281,0,0,1-4.5,1.877H12.756v-8.5H25.512V4.983a2.149,2.149,0,0,1-.764-.747,2.1,2.1,0,0,1-.3-1.046,2.06,2.06,0,0,1,.166-.83,2.131,2.131,0,0,1,.448-.664,2.317,2.317,0,0,1,.681-.465,1.8,1.8,0,0,1,.83-.166,2.06,2.06,0,0,1,.83.166,2.131,2.131,0,0,1,.664.448,2.317,2.317,0,0,1,.465.681,1.8,1.8,0,0,1,.166.83,1.946,1.946,0,0,1-.282,1.03,2.245,2.245,0,0,1-.781.764Zm0,10.63a4.079,4.079,0,0,0,1.644-.332,4.529,4.529,0,0,0,1.362-.914,3.975,3.975,0,0,0,.914-1.345,4.532,4.532,0,0,0,.332-1.661,4.079,4.079,0,0,0-.332-1.644,4.529,4.529,0,0,0-.914-1.362A3.975,3.975,0,0,0,29.3,17.34a4.532,4.532,0,0,0-1.661-.332v2.126a2.06,2.06,0,0,1-.166.83,2.131,2.131,0,0,1-.448.664,2.317,2.317,0,0,1-.681.465,1.8,1.8,0,0,1-.83.166H14.882v4.252Z" transform="translate(4757 1382.992)"/></g></g></svg>