<svg xmlns="http://www.w3.org/2000/svg" xmlns:xlink="http://www.w3.org/1999/xlink" width="79" height="79" viewBox="0 0 79 79"><defs><style>.a{fill:#fff;}.b{fill:#151515;}.c{clip-path:url(#a);}</style><clipPath id="a"><rect class="a" width="34" height="34" transform="translate(5147 963)"/></clipPath></defs><g transform="translate(-5124 -940)"><circle class="b" cx="39.5" cy="39.5" r="39.5" transform="translate(5124 940)"/><g class="c"><path class="a" d="M29.775,16.5v.3a2.72,2.72,0,0,0,.017.3v.3a2.72,2.72,0,0,1-.017.3L34.1,20.39l-2.655,6.4-4.96-1.136q-.4.434-.835.835l1.136,4.96L20.39,34.1,17.7,29.775h-.3a2.72,2.72,0,0,0-.3.017h-.3a2.72,2.72,0,0,1-.3-.017L13.81,34.1l-6.4-2.655,1.136-4.96q-.434-.4-.835-.835l-4.96,1.136L.1,20.39,4.425,17.7v-.3a2.72,2.72,0,0,0-.017-.3v-.3a2.72,2.72,0,0,1,.017-.3L.1,13.81l2.655-6.4L7.715,8.55q.4-.434.835-.835L7.415,2.755,13.81.1,16.5,4.425h.3a2.72,2.72,0,0,0,.3-.017h.3a2.72,2.72,0,0,1,.3.017L20.39.1l6.4,2.655L25.65,7.715q.434.4.835.835l4.96-1.136,2.655,6.4ZM27.821,18.67q.033-.4.067-.785t.033-.8q0-.384-.033-.785t-.067-.785l3.941-2.455L30.326,9.585,25.8,10.638a15.571,15.571,0,0,0-1.052-1.169q-.534-.534-1.186-1.069l1.052-4.526L21.141,2.438,18.67,6.379l-.785-.067q-.4-.033-.785-.033-.4,0-.785.033l-.8.067L13.059,2.438,9.585,3.874,10.638,8.4A15.571,15.571,0,0,0,9.469,9.452q-.534.534-1.069,1.186L3.874,9.585,2.438,13.059,6.379,15.53q-.033.4-.067.785t-.033.8q0,.384.033.785t.067.785L2.438,21.141l1.436,3.473L8.4,23.563a15.57,15.57,0,0,0,1.052,1.169q.534.534,1.186,1.069L9.585,30.326l3.473,1.436,2.472-3.941.785.067q.4.033.785.033.4,0,.785-.033l.8-.067,2.455,3.941,3.473-1.436L23.563,25.8a15.57,15.57,0,0,0,1.169-1.052q.534-.534,1.069-1.186l4.526,1.052,1.436-3.473ZM17.1,10.821a6.149,6.149,0,0,1,2.438.484,6.306,6.306,0,0,1,2,1.353,6.128,6.128,0,0,1,1.336,1.987,6.749,6.749,0,0,1,.5,2.455,6.149,6.149,0,0,1-.484,2.438,6.306,6.306,0,0,1-1.353,2,6.128,6.128,0,0,1-1.987,1.336,6.749,6.749,0,0,1-2.455.5,6.149,6.149,0,0,1-2.438-.484,6.306,6.306,0,0,1-2-1.353,6.128,6.128,0,0,1-1.336-1.987,6.749,6.749,0,0,1-.5-2.455,6.149,6.149,0,0,1,.484-2.438,6.306,6.306,0,0,1,1.353-2,6.128,6.128,0,0,1,1.987-1.336A6.749,6.749,0,0,1,17.1,10.821Zm0,10.688a4.427,4.427,0,0,0,1.72-.334,4.179,4.179,0,0,0,1.4-.952A4.475,4.475,0,0,0,21.509,17.1a4.427,4.427,0,0,0-.334-1.72,4.179,4.179,0,0,0-.952-1.4A4.475,4.475,0,0,0,17.1,12.692a4.427,4.427,0,0,0-1.72.334,4.179,4.179,0,0,0-1.4.952A4.475,4.475,0,0,0,12.692,17.1a4.427,4.427,0,0,0,.334,1.72,4.179,4.179,0,0,0,.952,1.4A4.475,4.475,0,0,0,17.1,21.509Z" transform="translate(5146.9 962.9)"/></g></g></svg>