<svg xmlns="http://www.w3.org/2000/svg" xmlns:xlink="http://www.w3.org/1999/xlink" width="79" height="79" viewBox="0 0 79 79"><defs><style>.a{fill:#fff;}.b{fill:#151515;}.c{clip-path:url(#a);}</style><clipPath id="a"><rect class="a" width="34" height="34" transform="translate(4757 963)"/></clipPath></defs><g transform="translate(-4734 -940)"><circle class="b" cx="39.5" cy="39.5" r="39.5" transform="translate(4734 940)"/><g class="c"><path class="a" d="M6.8,28.333a.986.986,0,0,0,.212.6,3.014,3.014,0,0,0,.549.549,4.927,4.927,0,0,0,.655.443q.319.177.6.3a9.064,9.064,0,0,0,.62,2.656,15.134,15.134,0,0,1-1.611-.638,8.967,8.967,0,0,1-1.594-.939,4.63,4.63,0,0,1-1.2-1.293,3.251,3.251,0,0,1-.478-1.682V7.933a2.976,2.976,0,0,1,.407-1.541A5.061,5.061,0,0,1,6.021,5.135a6.178,6.178,0,0,1,1.523-.956q.868-.39,1.735-.726A10.9,10.9,0,0,1,11,2.94q.85-.177,1.505-.3a27.388,27.388,0,0,1,9,0q.655.106,1.487.3t1.735.5a12.505,12.505,0,0,1,1.735.726,9.06,9.06,0,0,1,1.523.974,4.26,4.26,0,0,1,1.08,1.24,3.255,3.255,0,0,1,.407,1.558V19.019a8.866,8.866,0,0,0-2.267-.885V11.3a11.506,11.506,0,0,1-2.3,1.08,19.478,19.478,0,0,1-2.621.708,26.141,26.141,0,0,1-2.727.39Q18.169,13.6,17,13.6q-1.2,0-2.55-.106a21.7,21.7,0,0,1-2.709-.39A21.158,21.158,0,0,1,9.1,12.378,11.506,11.506,0,0,1,6.8,11.3ZM17,4.533q-1.009,0-2.3.106a25.8,25.8,0,0,0-2.621.354A14.551,14.551,0,0,0,9.545,5.7,7.738,7.738,0,0,0,7.508,6.818,3.048,3.048,0,0,0,7.03,7.3a.985.985,0,0,0-.23.638.962.962,0,0,0,.23.62,3.836,3.836,0,0,0,.478.5,6.854,6.854,0,0,0,2.019,1.116,15.644,15.644,0,0,0,2.532.691q1.328.248,2.621.372a20.788,20.788,0,0,0,2.32.106q1.009,0,2.3-.106a25.8,25.8,0,0,0,2.621-.354,14.551,14.551,0,0,0,2.532-.708,7.435,7.435,0,0,0,2.019-1.116,3.048,3.048,0,0,0,.478-.478,1.074,1.074,0,0,0,.248-.637.962.962,0,0,0-.23-.62,3.281,3.281,0,0,0-.5-.5A6.854,6.854,0,0,0,24.455,5.7a15.768,15.768,0,0,0-2.515-.691q-1.31-.248-2.621-.372A21.031,21.031,0,0,0,17,4.533ZM31.361,24.986a5.565,5.565,0,0,1,1.948.638,5.734,5.734,0,0,1,1.558,1.24,5.712,5.712,0,0,1,1.4,3.736,5.488,5.488,0,0,1-.443,2.2A5.754,5.754,0,0,1,32.8,35.824a5.488,5.488,0,0,1-2.2.443H18.133a6.545,6.545,0,0,1-2.639-.531,7.1,7.1,0,0,1-2.16-1.452,6.8,6.8,0,0,1-1.47-7.455,6.823,6.823,0,0,1,1.452-2.16,7.073,7.073,0,0,1,2.16-1.47,6.287,6.287,0,0,1,2.656-.531q.407,0,.8.035a4.922,4.922,0,0,1,.8.142,6.54,6.54,0,0,1,2.32-1.806,6.733,6.733,0,0,1,2.886-.638,6.9,6.9,0,0,1,2.09.319,6.412,6.412,0,0,1,1.859.939,7.228,7.228,0,0,1,1.487,1.452A6.485,6.485,0,0,1,31.361,24.986ZM30.6,34a3.336,3.336,0,0,0,1.328-.266,3.382,3.382,0,0,0,1.806-1.806,3.453,3.453,0,0,0,0-2.656,3.382,3.382,0,0,0-1.806-1.806A3.336,3.336,0,0,0,30.6,27.2H29.467a4.349,4.349,0,0,0-.354-1.753,4.828,4.828,0,0,0-.974-1.452,4.238,4.238,0,0,0-1.434-.974,4.832,4.832,0,0,0-1.771-.354,4.387,4.387,0,0,0-2.6.832,4.762,4.762,0,0,0-.992.956,4.423,4.423,0,0,0-.673,1.257,4.509,4.509,0,0,0-4.285-.425,4.828,4.828,0,0,0-1.452.974,4.238,4.238,0,0,0-.974,1.434,4.832,4.832,0,0,0-.354,1.771,4.349,4.349,0,0,0,.354,1.753,4.828,4.828,0,0,0,.974,1.452,4.238,4.238,0,0,0,1.434.974A4.832,4.832,0,0,0,18.133,34Z" transform="translate(4753.591 960.733)"/></g></g></svg>