<svg xmlns="http://www.w3.org/2000/svg" width="81.671" height="50" viewBox="0 0 81.671 50"><defs><style>.a{fill:#fff;}</style></defs><g transform="translate(-93.846 -55.767)"><g transform="translate(93.846 55.767)"><path class="a" d="M128.6,129.888a7.175,7.175,0,0,0-.467-2.628,5.961,5.961,0,0,0-1.338-2.075,6.188,6.188,0,0,0-2.075-1.359,7.562,7.562,0,0,0-5.35,0,6.209,6.209,0,0,0-2.071,1.359,5.961,5.961,0,0,0-1.338,2.075,7.579,7.579,0,0,0,0,5.26,5.994,5.994,0,0,0,1.338,2.075,6.209,6.209,0,0,0,2.071,1.359,7.562,7.562,0,0,0,5.35,0,6.188,6.188,0,0,0,2.075-1.359,5.994,5.994,0,0,0,1.338-2.075A7.18,7.18,0,0,0,128.6,129.888Z" transform="translate(-108.705 -100.67)"/><path class="a" d="M162.126,71.563a13.4,13.4,0,0,0-7.944,2.592,21.377,21.377,0,0,0-42.031-1.665A13.407,13.407,0,0,0,93.846,84.848,13.59,13.59,0,0,0,106,98.134h1.074l.726-1.11,2.1-3.2h-.167a7.5,7.5,0,0,1-3.3.673,10.372,10.372,0,0,1-3.257-.545,8.717,8.717,0,0,1-2.981-1.7,8.816,8.816,0,0,1-2.179-2.937,9.784,9.784,0,0,1-.846-4.22,10.572,10.572,0,0,1,.825-4.3,9.067,9.067,0,0,1,2.22-3.127,9.513,9.513,0,0,1,3.257-1.909,11.973,11.973,0,0,1,3.974-.65,11.649,11.649,0,0,1,3.977.67,9.788,9.788,0,0,1,3.257,1.932,8.6,8.6,0,0,1,1.085,1.171c-.01-.233-.014-.464-.014-.7a20.6,20.6,0,0,1,1.357-7.573,17.96,17.96,0,0,1,3.8-6,17.036,17.036,0,0,1,5.87-3.922,19.771,19.771,0,0,1,7.555-1.4,18.632,18.632,0,0,1,6.927,1.35,12.931,12.931,0,0,1,5.563,4.149L142.8,67.837a9.944,9.944,0,0,0-3.827-3,11.472,11.472,0,0,0-4.785-1.049,12.908,12.908,0,0,0-5.467,1.123,12.58,12.58,0,0,0-4.182,3.073,14.026,14.026,0,0,0-2.695,4.572,16.293,16.293,0,0,0-.955,5.624,15.42,15.42,0,0,0,.907,5.3,13.184,13.184,0,0,0,2.619,4.4,12.232,12.232,0,0,0,4.178,3,13.594,13.594,0,0,0,5.594,1.1,11.193,11.193,0,0,0,5.389-1.249,11.561,11.561,0,0,0,3.929-3.5l4.079,3.049a16.576,16.576,0,0,1-1.412,1.574A14,14,0,0,1,143.5,93.9a18.957,18.957,0,0,1-4,1.8,17.214,17.214,0,0,1-5.416.775,17.7,17.7,0,0,1-7.63-1.6,18.228,18.228,0,0,1-8.81-8.609c-.031.321-.078.629-.133.927a12.06,12.06,0,0,1-.611,2.162,17.958,17.958,0,0,1-.952,2.034c-.368.673-.778,1.357-1.228,2.057l-2.282,3.58-.706,1.11H161.11l.041-.041c.321.024.648.041.975.041a13.286,13.286,0,1,0,0-26.57ZM169.9,85.877a.473.473,0,0,1-.372.45l-1.2.264a5.737,5.737,0,0,1-.382.917l.662,1.022a.454.454,0,0,1-.058.572l-1.866,1.848a.463.463,0,0,1-.576.061l-1.037-.653a6.474,6.474,0,0,1-.924.382l-.259,1.184a.458.458,0,0,1-.45.362h-2.633a.461.461,0,0,1-.46-.362l-.259-1.184a6.4,6.4,0,0,1-.931-.382l-1.023.653a.477.477,0,0,1-.587-.061L155.683,89.1a.463.463,0,0,1-.061-.572l.665-1.022a6.461,6.461,0,0,1-.385-.917l-1.19-.264a.46.46,0,0,1-.365-.45V83.265a.453.453,0,0,1,.365-.447l1.19-.267a6.461,6.461,0,0,1,.385-.917l-.665-1.022a.464.464,0,0,1,.061-.572l1.862-1.848a.482.482,0,0,1,.587-.061l1.023.66a5.75,5.75,0,0,1,.931-.389l.259-1.184a.461.461,0,0,1,.46-.362h2.633a.458.458,0,0,1,.45.362l.259,1.184a5.807,5.807,0,0,1,.924.389l1.037-.66a.468.468,0,0,1,.576.061l1.866,1.848a.454.454,0,0,1,.058.572l-.662,1.022a5.737,5.737,0,0,1,.382.917l1.2.267a.467.467,0,0,1,.372.447Z" transform="translate(-93.846 -55.767)"/><path class="a" d="M118.836,188.6h5.041l4.829-7.633h-4.912Z" transform="translate(-109.851 -138.6)"/></g><path class="a" d="M292.322,136.55a2.548,2.548,0,0,1-.2,1.008,2.605,2.605,0,0,1-.554.817,2.649,2.649,0,0,1-.826.544,2.7,2.7,0,0,1-2.044,0,2.653,2.653,0,0,1-.826-.544,2.6,2.6,0,0,1-.554-.817,2.548,2.548,0,0,1-.2-1.008,2.509,2.509,0,0,1,.2-1,2.568,2.568,0,0,1,1.38-1.366,2.7,2.7,0,0,1,2.044,0,2.568,2.568,0,0,1,1.38,1.366A2.509,2.509,0,0,1,292.322,136.55Z" transform="translate(-127.5 -51.963)"/></g></svg>