<svg xmlns="http://www.w3.org/2000/svg" xmlns:xlink="http://www.w3.org/1999/xlink" width="32" height="32" viewBox="0 0 32 32"><defs><style>.a{fill:#fff;stroke:#707070;}.b{clip-path:url(#a);}.c{fill:none;}</style><clipPath id="a"><rect class="a" width="32" height="32" transform="translate(13658 1927)"/></clipPath></defs><g class="b" transform="translate(-13658 -1927)"><g transform="translate(13658 1927)"><path class="c" d="M0,0H32V32H0Z"/><path d="M4,4H28a1.333,1.333,0,0,1,1.333,1.333V26.667A1.333,1.333,0,0,1,28,28H4a1.333,1.333,0,0,1-1.333-1.333V5.333A1.333,1.333,0,0,1,4,4ZM26.667,9.651,16.1,19.117,5.333,9.621V25.333H26.667ZM6.015,6.667l10.067,8.883L26,6.667Z"/></g></g></svg>