<svg xmlns="http://www.w3.org/2000/svg" xmlns:xlink="http://www.w3.org/1999/xlink" width="34" height="34" viewBox="0 0 34 34"><defs><style>.a{fill:#fff;}.b{clip-path:url(#a);}</style><clipPath id="a"><rect class="a" width="34" height="34" transform="translate(5147 1383)"/></clipPath></defs><g class="b" transform="translate(-5147 -1383)"><path class="a" d="M31.5,7.12V28.884a3.251,3.251,0,0,1-.668,2.022,3.4,3.4,0,0,1-1.776,1.213l-9.757,2.8a2.241,2.241,0,0,1-.4.07l-.422.035a3.459,3.459,0,0,1-1.02-.141,4.337,4.337,0,0,1-.932-.422l-6.382-3.6a1.431,1.431,0,0,1-.545-.51,1.512,1.512,0,0,1-.211-.738,1.41,1.41,0,0,1,.422-1.037,1.493,1.493,0,0,1,1.055-.44h8.263V8.052l-6.206,2.215a2.39,2.39,0,0,0-1.213.932,2.531,2.531,0,0,0-.457,1.459V24.1a2.429,2.429,0,0,1-.352,1.283,2.637,2.637,0,0,1-.967.932L7,27.917a1.735,1.735,0,0,1-.809.211A1.681,1.681,0,0,1,4.5,26.441V10.32a3.383,3.383,0,0,1,.457-1.688A3.2,3.2,0,0,1,6.206,7.384l10.478-5.96a3.279,3.279,0,0,1,.756-.3,3.192,3.192,0,0,1,.809-.105,3.5,3.5,0,0,1,.527.035A2.977,2.977,0,0,1,19.3,1.2l9.757,2.69a3.446,3.446,0,0,1,.984.457,3.3,3.3,0,0,1,.774.738,3.384,3.384,0,0,1,.51.949A3.321,3.321,0,0,1,31.5,7.12Zm-2.25,21.764V7.12a1.027,1.027,0,0,0-.229-.668,1.267,1.267,0,0,0-.6-.4l-4.8-1.319L22.5,4.413,21.377,4.1V31.978l7.05-2.022a1.159,1.159,0,0,0,.6-.387A1.052,1.052,0,0,0,29.253,28.884Z" transform="translate(5145.998 1381.98)"/></g></svg>