<svg xmlns="http://www.w3.org/2000/svg" xmlns:xlink="http://www.w3.org/1999/xlink" width="32" height="32" viewBox="0 0 32 32"><defs><style>.a{fill:#fff;stroke:#707070;}.b{clip-path:url(#a);}.c{fill:none;}</style><clipPath id="a"><rect class="a" width="32" height="32" transform="translate(13942 1755)"/></clipPath></defs><g class="b" transform="translate(-13942 -1755)"><g transform="translate(13942 1755)"><path class="c" d="M0,0H32V32H0Z"/><path d="M12.488,14.243a14.075,14.075,0,0,0,5.269,5.269l1.179-1.651a1.333,1.333,0,0,1,1.725-.395,15.229,15.229,0,0,0,6.111,1.819A1.333,1.333,0,0,1,28,20.615v5.949a1.333,1.333,0,0,1-1.2,1.327A20.679,20.679,0,0,1,4.109,5.2,1.333,1.333,0,0,1,5.436,4h5.949a1.333,1.333,0,0,1,1.329,1.228,15.229,15.229,0,0,0,1.819,6.111,1.333,1.333,0,0,1-.395,1.725l-1.651,1.179Zm-3.363-.876,2.533-1.809A17.88,17.88,0,0,1,10.2,6.667H6.68c-.008.221-.012.444-.012.667a18,18,0,0,0,18,18c.223,0,.445,0,.667-.013V21.8a17.88,17.88,0,0,1-4.891-1.463l-1.809,2.533a16.589,16.589,0,0,1-2.117-1l-.077-.044a16.741,16.741,0,0,1-6.269-6.269l-.044-.077a16.589,16.589,0,0,1-1-2.117Z"/></g></g></svg>