<svg xmlns="http://www.w3.org/2000/svg" xmlns:xlink="http://www.w3.org/1999/xlink" width="32" height="32" viewBox="0 0 32 32"><defs><style>.a{fill:#fff;stroke:#707070;}.b{clip-path:url(#a);}.c{fill:none;}</style><clipPath id="a"><rect class="a" width="32" height="32" transform="translate(13658 1755)"/></clipPath></defs><g class="b" transform="translate(-13658 -1755)"><g transform="translate(13658 1755)"><path class="c" d="M0,0H32V32H0Z"/><path d="M16,27.867l6.6-6.6a9.333,9.333,0,1,0-13.2,0Zm0,3.771L7.515,23.152a12,12,0,1,1,16.971,0Zm0-14.3a2.667,2.667,0,1,0-2.667-2.667A2.667,2.667,0,0,0,16,17.333ZM16,20a5.333,5.333,0,1,1,5.333-5.333A5.333,5.333,0,0,1,16,20Z"/></g></g></svg>