<svg xmlns="http://www.w3.org/2000/svg" xmlns:xlink="http://www.w3.org/1999/xlink" width="34" height="34" viewBox="0 0 34 34"><defs><style>.a{fill:#fff;}.b{clip-path:url(#a);}</style><clipPath id="a"><rect class="a" width="34" height="34" transform="translate(5147 1383)"/></clipPath></defs><g class="b" transform="translate(-5147 -1383)"><path class="a" d="M13.6,6.8h9.067V9.067H13.6Zm0,13.6h9.067v2.267H13.6Zm0,4.533h9.067V27.2H13.6ZM34.319,36.267H1.948L4.781,24.933H9.067V4.533a2.153,2.153,0,0,1,.177-.868,2.5,2.5,0,0,1,.478-.726,2.091,2.091,0,0,1,.726-.5,2.28,2.28,0,0,1,.885-.177h13.6a2.153,2.153,0,0,1,.868.177,2.5,2.5,0,0,1,.726.478,2.091,2.091,0,0,1,.5.726,2.28,2.28,0,0,1,.177.885v20.4h4.285Zm-22.985-6.8h13.6V4.533h-13.6ZM31.415,34l-1.7-6.8H27.2v4.533H9.067V27.2H6.552L4.852,34Z" transform="translate(5145.867 1380.733)"/></g></svg>