<svg xmlns="http://www.w3.org/2000/svg" width="175.718" height="50.995" viewBox="0 0 175.718 50.995"><defs><style>.a,.b{fill:#245bda;}.a{fill-rule:evenodd;}</style></defs><path class="a" d="M50.492,12.347l-9.67,19.475L57.847,51.554l-31.6,3.587,49.031.513L50.492,12.347Z" transform="translate(-9.906 -4.66)"/><path class="a" d="M38.68,0,16.48,18.579,0,46.382l14.028-1.41Z"/><path class="b" d="M128.327,31.581,117.709,57.618h3.61l2.761-7.3h11.738l2.935,7.3h3.591L131.686,31.581Zm1.583,3.159h.077a10.1,10.1,0,0,0,.425,1.743l4.344,11.094h-9.595l4.305-11.094A9.254,9.254,0,0,0,129.91,34.74Zm82.1,3.85a8.645,8.645,0,0,0-6.506,2.741,9.794,9.794,0,0,0-2.606,7.064q0,4.594,2.394,7.135a8.638,8.638,0,0,0,6.583,2.524,12.013,12.013,0,0,0,6.892-1.779v-2.8a10.1,10.1,0,0,1-6.139,2.07,6.335,6.335,0,0,1-4.672-1.689,6.71,6.71,0,0,1-1.776-4.793h13.958V47.5a9.45,9.45,0,0,0-2.124-6.554,7.66,7.66,0,0,0-6-2.361Zm-14.145.109a4.863,4.863,0,0,0-3.108,1.108,6.4,6.4,0,0,0-2.065,3.05h-.077V39.026h-3.166V57.618h3.166V48.141a7.984,7.984,0,0,1,1.352-4.9,4.13,4.13,0,0,1,3.4-1.8,4.054,4.054,0,0,1,2.394.6V38.953A5.473,5.473,0,0,0,197.866,38.7Zm-52.305.327v2.542h10.6l-11.7,15.125v.926H160.7V55.077H149.113l11.7-15.2v-.853H145.561Zm20.013,0V50.138q0,7.917,7.066,7.916a6.573,6.573,0,0,0,6.1-3.377h.077v2.942h3.166V39.026h-3.166V49.738a5.931,5.931,0,0,1-1.505,4.212,4.964,4.964,0,0,1-3.8,1.6q-4.788,0-4.788-5.882V39.026h-3.147Zm46.379,2.07a4.613,4.613,0,0,1,3.61,1.434,5.793,5.793,0,0,1,1.332,4.012H206.219a6.672,6.672,0,0,1,1.931-3.94A5.277,5.277,0,0,1,211.953,41.1Z" transform="translate(-44.421 -11.918)"/></svg>